<svg xmlns="http://www.w3.org/2000/svg" width="570" height="392.627" viewBox="0 0 570 392.627">
  <g id="occucare_angola_3" transform="translate(2014 -1575)">
    <g id="Occucare_Brunei_1" transform="translate(408 1565.687)">
      <g id="Occucare_Spain_3" transform="translate(-2422 46.717)">
        <g id="Group_276258" data-name="Group 276258" transform="translate(0 0)">
          <g id="Group_276243" data-name="Group 276243" transform="translate(49.132 123.295)">
            <g id="Group_276241" data-name="Group 276241">
              <g id="Group_276240" data-name="Group 276240">
                <g id="Group_276237" data-name="Group 276237">
                  <path id="Path_98498" data-name="Path 98498" d="M269.215,417.6h-41.5V364.781l41.8,9.483Z" transform="translate(-104.573 -187.225)" fill="#527fba"/>
                  <rect id="Rectangle_151468" data-name="Rectangle 151468" width="41.504" height="52.823" transform="translate(130.414 177.556)" fill="#85a9d9"/>
                  <path id="Rectangle_151469" data-name="Rectangle 151469" d="M16.508,0H272.741a0,0,0,0,1,0,0V191.889a0,0,0,0,1,0,0H16.508A16.508,16.508,0,0,1,0,175.381V16.508A16.508,16.508,0,0,1,16.508,0Z" fill="#85a9d9"/>
                  <path id="Rectangle_151470" data-name="Rectangle 151470" d="M16.508,0H260.227a12.514,12.514,0,0,1,12.514,12.514V179.375a12.514,12.514,0,0,1-12.514,12.514H16.508A16.508,16.508,0,0,1,0,175.381V16.508A16.508,16.508,0,0,1,16.508,0Z" transform="translate(16.709)" fill="#527fba"/>
                  <path id="Rectangle_151471" data-name="Rectangle 151471" d="M14.839,0H233.912a11.249,11.249,0,0,1,11.249,11.249V161.236a11.249,11.249,0,0,1-11.249,11.249H14.839A14.839,14.839,0,0,1,0,157.646V14.839A14.839,14.839,0,0,1,14.839,0Z" transform="translate(34.273 8.894)" fill="#85a9d9"/>
                  <path id="Rectangle_151472" data-name="Rectangle 151472" d="M12.925,0H207.231a9.8,9.8,0,0,1,9.8,9.8V138.031a9.8,9.8,0,0,1-9.8,9.8H12.925A12.925,12.925,0,0,1,0,134.9V12.925A12.925,12.925,0,0,1,12.925,0Z" transform="translate(49.674 20.743)" fill="#cbe1ff"/>
                  <path id="Path_98499" data-name="Path 98499" d="M235.326,379.149l40.83,10.915.2-11.521Z" transform="translate(-104.48 -187.057)" fill="#527fba"/>
                  <g id="Group_276236" data-name="Group 276236" transform="translate(63.57 34.159)">
                    <circle id="Ellipse_3859" data-name="Ellipse 3859" cx="23.479" cy="23.479" r="23.479" fill="#527fba"/>
                    <path id="Path_98500" data-name="Path 98500" d="M207.61,240.622h-9.384V231.4h-11.74v9.224h-9.064v11.74h9.064v9.224h11.74v-9.224h9.384Z" transform="translate(-168.757 -223.013)" fill="#fff"/>
                  </g>
                  <rect id="Rectangle_151473" data-name="Rectangle 151473" width="50.153" height="4.153" transform="translate(62.931 88.306)" fill="#527fba"/>
                  <rect id="Rectangle_151474" data-name="Rectangle 151474" width="50.153" height="4.153" transform="translate(62.931 100.125)" fill="#527fba"/>
                  <rect id="Rectangle_151475" data-name="Rectangle 151475" width="50.153" height="4.153" transform="translate(62.931 111.945)" fill="#527fba"/>
                </g>
              </g>
            </g>
          </g>
          <g id="Group_276244" data-name="Group 276244" transform="translate(13.214 9.07)">
            <path id="Path_98524" data-name="Path 98524" d="M419.165,174.5H417.68a1.048,1.048,0,0,1-1.048-1.048v-1.834a1.048,1.048,0,0,0-1.048-1.048h-2.97a1.048,1.048,0,0,0-1.048,1.048v1.834a1.048,1.048,0,0,1-1.048,1.048h-1.485a1.049,1.049,0,0,0-1.049,1.048v2.97a1.048,1.048,0,0,0,1.049,1.048h1.485a1.049,1.049,0,0,1,1.048,1.049v1.659a1.048,1.048,0,0,0,1.048,1.048h2.97a1.048,1.048,0,0,0,1.048-1.048v-1.659a1.049,1.049,0,0,1,1.048-1.049h1.486a1.048,1.048,0,0,0,1.048-1.048v-2.97A1.048,1.048,0,0,0,419.165,174.5Z" transform="translate(-93.158 -122.915)" fill="#cae5e3"/>
            <path id="Path_98525" data-name="Path 98525" d="M663.816,90.422h-1.578a1.114,1.114,0,0,1-1.114-1.114V87.36a1.113,1.113,0,0,0-1.113-1.114h-3.156a1.113,1.113,0,0,0-1.114,1.114v1.949a1.114,1.114,0,0,1-1.114,1.114H653.05a1.114,1.114,0,0,0-1.114,1.114v3.156a1.114,1.114,0,0,0,1.114,1.114h1.578a1.114,1.114,0,0,1,1.114,1.113v1.764a1.114,1.114,0,0,0,1.114,1.114h3.156a1.114,1.114,0,0,0,1.113-1.114V96.919a1.114,1.114,0,0,1,1.114-1.113h1.578a1.114,1.114,0,0,0,1.114-1.114V91.536A1.114,1.114,0,0,0,663.816,90.422Z" transform="translate(-219.387 -69.893)" fill="#cae5e3"/>
            <path id="Path_98526" data-name="Path 98526" d="M64.92,296.892H63.435a1.048,1.048,0,0,1-1.048-1.048V294.01a1.048,1.048,0,0,0-1.048-1.048h-2.97a1.048,1.048,0,0,0-1.048,1.048v1.834a1.048,1.048,0,0,1-1.048,1.048H54.787a1.049,1.049,0,0,0-1.048,1.049v2.969a1.048,1.048,0,0,0,1.048,1.048h1.486a1.049,1.049,0,0,1,1.048,1.049v1.659a1.048,1.048,0,0,0,1.048,1.048h2.97a1.048,1.048,0,0,0,1.048-1.048v-1.659a1.049,1.049,0,0,1,1.048-1.049H64.92a1.048,1.048,0,0,0,1.048-1.048v-2.969A1.048,1.048,0,0,0,64.92,296.892Z" transform="translate(-53.739 -154.862)" fill="#cae5e3"/>
            <path id="Path_98528" data-name="Path 98528" d="M161.449,394.078h-1.485a1.049,1.049,0,0,1-1.049-1.048V391.2a1.049,1.049,0,0,0-1.048-1.049H154.9a1.049,1.049,0,0,0-1.049,1.049v1.834a1.048,1.048,0,0,1-1.048,1.048h-1.485a1.048,1.048,0,0,0-1.048,1.048v2.97a1.048,1.048,0,0,0,1.048,1.048H152.8a1.048,1.048,0,0,1,1.048,1.048v1.659A1.049,1.049,0,0,0,154.9,402.9h2.969a1.049,1.049,0,0,0,1.048-1.049v-1.659a1.049,1.049,0,0,1,1.049-1.048h1.485A1.048,1.048,0,0,0,162.5,398.1v-2.97A1.048,1.048,0,0,0,161.449,394.078Z" transform="translate(0.078 -302.27)" fill="#cae5e3"/>
            <path id="Path_98529" data-name="Path 98529" d="M89.536,138.464H88.052A1.049,1.049,0,0,1,87,137.416v-1.834a1.048,1.048,0,0,0-1.048-1.048H82.986a1.049,1.049,0,0,0-1.049,1.048v1.834a1.048,1.048,0,0,1-1.048,1.048H79.4a1.049,1.049,0,0,0-1.049,1.049v2.969a1.049,1.049,0,0,0,1.049,1.048h1.485a1.049,1.049,0,0,1,1.048,1.049v1.659a1.049,1.049,0,0,0,1.049,1.048h2.969A1.048,1.048,0,0,0,87,146.239V144.58a1.049,1.049,0,0,1,1.049-1.049h1.485a1.048,1.048,0,0,0,1.048-1.048v-2.969A1.049,1.049,0,0,0,89.536,138.464Z" transform="translate(-51.708 -118.536)" fill="#cae5e3"/>
            <circle id="Ellipse_3864" data-name="Ellipse 3864" cx="3.743" cy="3.743" r="3.743" transform="translate(15.55 85.081)" fill="#cae5e3"/>
            <circle id="Ellipse_3865" data-name="Ellipse 3865" cx="3.743" cy="3.743" r="3.743" transform="translate(148.865 40.617)" fill="#cae5e3"/>
            <path id="Path_98530" data-name="Path 98530" d="M378.485,132.967a3.743,3.743,0,1,1-3.742-3.742A3.743,3.743,0,0,1,378.485,132.967Z" transform="translate(-88.509 -117.891)" fill="#cae5e3"/>
            <circle id="Ellipse_3866" data-name="Ellipse 3866" cx="3.743" cy="3.743" r="3.743" transform="translate(492.747 125.559)" fill="#cae5e3"/>
            <circle id="Ellipse_3867" data-name="Ellipse 3867" cx="3.743" cy="3.743" r="3.743" transform="translate(476.433 103.961)" fill="#cae5e3"/>
            <circle id="Ellipse_3868" data-name="Ellipse 3868" cx="3.743" cy="3.743" r="3.743" transform="translate(320.5)" fill="#cae5e3"/>
          </g>
          <g id="Group_276256" data-name="Group 276256" transform="translate(0 0)">
            <g id="Group_276250" data-name="Group 276250" transform="translate(81.339 41.039)">
              <rect id="Rectangle_151491" data-name="Rectangle 151491" width="32.166" height="60.169" rx="3.805" transform="matrix(0.946, -0.325, 0.325, 0.946, 0, 10.442)" fill="#d3e2f5"/>
              <rect id="Rectangle_151492" data-name="Rectangle 151492" width="27.642" height="1.386" transform="translate(6.027 20.785) rotate(-18.319)" fill="#aac1e1"/>
              <rect id="Rectangle_151493" data-name="Rectangle 151493" width="27.642" height="1.386" transform="translate(9.613 30.918) rotate(-18.319)" fill="#aac1e1"/>
              <rect id="Rectangle_151494" data-name="Rectangle 151494" width="27.642" height="1.386" transform="translate(13.888 42.055) rotate(-18.319)" fill="#aac1e1"/>
              <rect id="Rectangle_151495" data-name="Rectangle 151495" width="27.642" height="1.386" transform="translate(17.474 52.189) rotate(-18.319)" fill="#aac1e1"/>
              <path id="Path_98532" data-name="Path 98532" d="M106.4,109.559a3.59,3.59,0,1,1-4.331-2.424A3.511,3.511,0,0,1,106.4,109.559Z" transform="translate(-93.478 -95.935)" fill="#527fba"/>
              <path id="Path_98533" data-name="Path 98533" d="M124.1,103.763a3.59,3.59,0,1,1-4.331-2.424A3.511,3.511,0,0,1,124.1,103.763Z" transform="translate(-95.628 -95.231)" fill="#527fba"/>
              <path id="Path_98534" data-name="Path 98534" d="M110.893,121.723a3.59,3.59,0,1,1-4.331-2.425A3.511,3.511,0,0,1,110.893,121.723Z" transform="translate(-94.023 -97.413)" fill="#527fba"/>
              <path id="Path_98535" data-name="Path 98535" d="M128.586,115.927a3.59,3.59,0,1,1-4.331-2.425A3.512,3.512,0,0,1,128.586,115.927Z" transform="translate(-96.173 -96.709)" fill="#527fba"/>
              <path id="Path_98536" data-name="Path 98536" d="M115.179,133.572a3.59,3.59,0,1,1-4.332-2.424A3.511,3.511,0,0,1,115.179,133.572Z" transform="translate(-94.544 -98.853)" fill="#527fba"/>
              <path id="Path_98537" data-name="Path 98537" d="M132.872,127.776a3.59,3.59,0,1,1-4.332-2.424A3.511,3.511,0,0,1,132.872,127.776Z" transform="translate(-96.694 -98.149)" fill="#527fba"/>
              <path id="Path_98538" data-name="Path 98538" d="M120.037,145.273a3.59,3.59,0,1,1-4.331-2.424A3.512,3.512,0,0,1,120.037,145.273Z" transform="translate(-95.134 -100.275)" fill="#527fba"/>
              <path id="Path_98539" data-name="Path 98539" d="M137.73,139.477a3.59,3.59,0,1,1-4.331-2.424A3.511,3.511,0,0,1,137.73,139.477Z" transform="translate(-97.284 -99.57)" fill="#527fba"/>
              <path id="Path_98540" data-name="Path 98540" d="M124.811,157.119a3.59,3.59,0,1,1-4.332-2.424A3.511,3.511,0,0,1,124.811,157.119Z" transform="translate(-95.714 -101.714)" fill="#527fba"/>
              <path id="Path_98541" data-name="Path 98541" d="M142.5,151.323a3.59,3.59,0,1,1-4.332-2.425A3.511,3.511,0,0,1,142.5,151.323Z" transform="translate(-97.864 -101.01)" fill="#527fba"/>
            </g>
            <g id="Group_276252" data-name="Group 276252" transform="translate(0 200.56)">
              <path id="Path_98542" data-name="Path 98542" d="M67.923,258.4a5.822,5.822,0,1,1-5.823-5.822A5.822,5.822,0,0,1,67.923,258.4Z" transform="translate(-54.895 -242.006)" fill="#2d77db"/>
              <path id="Path_98543" data-name="Path 98543" d="M66.348,258.4a5.79,5.79,0,0,1-2.42,4.716,5.148,5.148,0,0,1-1.381.741,5.6,5.6,0,0,1-2.021.365,5.817,5.817,0,0,1-4.051-10,5.685,5.685,0,0,1,1.272-.948,5.833,5.833,0,0,1,8.6,5.123Z" transform="translate(-54.704 -242.006)" fill="#6aa3ef"/>
              <path id="Path_98544" data-name="Path 98544" d="M64.58,263.271a5.122,5.122,0,0,1-1.391.762l-6.113-9.916a5.774,5.774,0,0,1,1.281-.976Z" transform="translate(-54.992 -242.074)" fill="#2d77db"/>
              <g id="Group_276251" data-name="Group 276251" transform="translate(17.809)">
                <path id="Path_98545" data-name="Path 98545" d="M85.565,244.126l4.645,12.692a5.46,5.46,0,0,1-10.256,3.753L75.31,247.878a5.46,5.46,0,1,1,10.256-3.752Z" transform="translate(-74.977 -240.544)" fill="#527fba"/>
                <path id="Path_98546" data-name="Path 98546" d="M85.565,244.126l2.556,6.982-10.256,3.753-2.556-6.983a5.46,5.46,0,1,1,10.256-3.752Z" transform="translate(-74.977 -240.544)" fill="#6aa3ef"/>
              </g>
            </g>
            <g id="Group_276255" data-name="Group 276255" transform="translate(106.026)">
              <path id="Path_98552" data-name="Path 98552" d="M606.116,85.716c-.049.243-.1.494-.153.737a1.1,1.1,0,0,1-.035.16c-.042.194-.091.389-.139.577-2.768,10.814-14.362,20.147-14.362,20.147s-13.485-2.81-20.523-11.455c-.174-.2-.334-.41-.494-.618a.754.754,0,0,0-.062-.076c-.133-.181-.257-.362-.383-.543a17.527,17.527,0,0,1-2.941-6.9c-2.823-15.021,14.249-15.39,18.575-8.762l-.048-.271c1.391-7.817,17.511-14.007,20.537,1.05A16.022,16.022,0,0,1,606.116,85.716Z" transform="translate(-566.711 -70.555)" fill="#527fba"/>
              <path id="Path_98553" data-name="Path 98553" d="M576.763,96.972l-.083.431-5.765,1.071-.063-.076Z" transform="translate(-567.214 -73.765)" fill="#ff969c"/>
              <path id="Path_98554" data-name="Path 98554" d="M579.236,87.171l4.548,7.114-.723.174L578.325,95.6l-.744.181Z" transform="translate(-568.032 -72.574)" fill="#527fba"/>
              <path id="Path_98555" data-name="Path 98555" d="M584.642,95.267l.1-.021-.035.125Z" transform="translate(-568.89 -73.555)" fill="#ff969c"/>
              <path id="Path_98556" data-name="Path 98556" d="M585.935,90.148l2.267,3.644-.709.174-1.975.473-.765.188Z" transform="translate(-568.903 -72.936)" fill="#527fba"/>
              <path id="Path_98557" data-name="Path 98557" d="M591.2,93.583l.716-.174-.633,4.952-2.6-4.173.716-.174Z" transform="translate(-569.381 -73.332)" fill="#527fba"/>
              <path id="Path_98558" data-name="Path 98558" d="M592.854,89.055l2.427,3.123-.737.181-1.453.348-.73.174Z" transform="translate(-569.828 -72.803)" fill="#527fba"/>
              <path id="Path_98559" data-name="Path 98559" d="M609.449,88.524l-8.784,2.114-4.221,1.022-.751.181,1.134-5.557L599.7,90.11l9.785-1.746Z" transform="translate(-570.233 -72.466)" fill="#527fba"/>
              <path id="Path_98560" data-name="Path 98560" d="M606.378,88.3c-.042.194-.091.389-.139.577l-8.644,1.536-1.273.23-2.191-2.928-.758,3.72L593,93.24l-1.127-1.446-1.21-1.558-.243,1.906L589.5,99.3l-3.749-6.03-1.293-2.086-.682,2.559-.536,2.024-1.05-1.641-3.471-5.439-1.265,6.579-.23,1.21-5.869,1.092c-.174-.2-.334-.41-.494-.618l-.062-.076c-.133-.181-.257-.362-.383-.543l5.62-1.043,1.982-10.292,4.694,7.35,1.217-4.631,3.248,5.209,1.446,2.323.355-2.754.737-5.744L592.247,90l1.133-5.6,3.547,4.722,9.639-1.724c-.049.243-.1.494-.153.737Z" transform="translate(-567.161 -72.237)" fill="#fff"/>
            </g>
            <g id="Group_276260" data-name="Group 276260" transform="translate(477.655 61.611)">
              <path id="Path_98542-2" data-name="Path 98542" d="M67.923,258.4a5.822,5.822,0,1,1-5.823-5.822A5.822,5.822,0,0,1,67.923,258.4Z" transform="translate(-54.895 -242.006)" fill="#2d77db"/>
              <path id="Path_98543-2" data-name="Path 98543" d="M66.348,258.4a5.79,5.79,0,0,1-2.42,4.716,5.148,5.148,0,0,1-1.381.741,5.6,5.6,0,0,1-2.021.365,5.817,5.817,0,0,1-4.051-10,5.685,5.685,0,0,1,1.272-.948,5.833,5.833,0,0,1,8.6,5.123Z" transform="translate(-54.704 -242.006)" fill="#6aa3ef"/>
              <path id="Path_98544-2" data-name="Path 98544" d="M64.58,263.271a5.122,5.122,0,0,1-1.391.762l-6.113-9.916a5.774,5.774,0,0,1,1.281-.976Z" transform="translate(-54.992 -242.074)" fill="#2d77db"/>
              <g id="Group_276251-2" data-name="Group 276251" transform="translate(17.809)">
                <path id="Path_98545-2" data-name="Path 98545" d="M85.565,244.126l4.645,12.692a5.46,5.46,0,0,1-10.256,3.753L75.31,247.878a5.46,5.46,0,1,1,10.256-3.752Z" transform="translate(-74.977 -240.544)" fill="#527fba"/>
                <path id="Path_98546-2" data-name="Path 98546" d="M85.565,244.126l2.556,6.982-10.256,3.753-2.556-6.983a5.46,5.46,0,1,1,10.256-3.752Z" transform="translate(-74.977 -240.544)" fill="#6aa3ef"/>
              </g>
            </g>
          </g>
          <g id="Group_276257" data-name="Group 276257" transform="translate(0.092 283.487)">
            <path id="Path_98561" data-name="Path 98561" d="M85.873,348.768s-5.381-15.714-3.228-21.741,6.242,2.8,6.457,9.687,7.1.861,2.583-14.853-4.951-23.894,0-24.109,9.687,13.561,9.687,29.921,5.166,15.068,10.978,4.951,5.9,7.273-.861,22.6c-3.229,7.319,2.583,12.7,2.583,12.7H93.408Z" transform="translate(-56.574 -297.749)" fill="#aac1e1"/>
            <path id="Path_98562" data-name="Path 98562" d="M51.742,377.249H80.156s-6.243-1.938-6.458-12.7-4.52-13.561-10.548-14.207.215-13.992-7.319-17.221-3.014-6.673-9.687-12.27S35.6,327.523,42.27,334.842s1.292,9.687.646,17.005,4.3,10.763,8.4,12.055S51.742,377.249,51.742,377.249Z" transform="translate(-38.802 -306.641)" fill="#d5e7ff"/>
          </g>
        </g>
        <path id="Path_97857" data-name="Path 97857" d="M648.5,1852.335h-567a1.525,1.525,0,0,0-1.5,1.537h0a1.525,1.525,0,0,0,1.5,1.537h567a1.538,1.538,0,0,0,0-3.075Z" transform="translate(-80.003 -1501.205)" fill="#131f32"/>
      </g>
      <g id="Layer_6" data-name="Layer 6" transform="translate(-2136.648 9.313)">
        <g id="Group_17833" data-name="Group 17833" transform="translate(0)">
          <g id="Group_17821" data-name="Group 17821">
            <path id="Path_196323" data-name="Path 196323" d="M751.679,304.691A58.233,58.233,0,0,1,720.63,281.1c-6.234-9.227-10.808-20.769-13.594-34.3a164.567,164.567,0,0,1-2.606-44.336l.035-.338.334-.068c34.688-7.089,46.531-22.752,46.644-22.91l.374-.509.374.509c.116.158,11.958,15.821,46.644,22.91l.334.068.035.338A164.32,164.32,0,0,1,796.6,246.8c-2.786,13.535-7.359,25.077-13.594,34.3a58.233,58.233,0,0,1-31.049,23.587l-.141.043Z" transform="translate(-703.48 -177.858)" fill="#527fba"/>
            <path id="Path_196324" data-name="Path 196324" d="M751.215,178.4s11.62,15.874,46.928,23.089c0,0,8.715,83.94-46.928,101.738-55.643-17.8-46.927-101.738-46.927-101.738C739.6,194.278,751.215,178.4,751.215,178.4Zm0-1.563-.746,1.017h0c-.029.039-2.953,3.952-10.1,8.686-6.6,4.374-18.249,10.361-36.271,14.044l-.666.136-.073.674a164.9,164.9,0,0,0,2.612,44.478c2.8,13.594,7.395,25.193,13.663,34.47a58.688,58.688,0,0,0,31.292,23.769l.282.09.283-.09a58.693,58.693,0,0,0,31.292-23.769c6.27-9.279,10.867-20.875,13.665-34.469a164.907,164.907,0,0,0,2.612-44.478l-.07-.677-.667-.136c-18.021-3.683-29.671-9.67-36.27-14.044-7.141-4.734-10.066-8.647-10.1-8.686l-.749-1.017Z" transform="translate(-702.875 -176.84)" fill="#fff"/>
          </g>
          <g id="Group_17824" data-name="Group 17824" transform="translate(47.991 27.314)">
            <g id="Group_17822" data-name="Group 17822" transform="translate(22.543)">
              <path id="Path_196325" data-name="Path 196325" d="M865.632,320.683a.347.347,0,0,1-.256-.583,60.466,60.466,0,0,0,5.469-6.936c5.9-8.707,10.25-19.667,12.924-32.573a161.286,161.286,0,0,0,2.766-40.49.348.348,0,0,1,.7-.043,161.859,161.859,0,0,1-2.779,40.674c-2.693,13-7.079,24.038-13.029,32.821a61.11,61.11,0,0,1-5.533,7.016A.348.348,0,0,1,865.632,320.683Z" transform="translate(-865.283 -239.731)" fill="#0396c8"/>
            </g>
            <g id="Group_17823" data-name="Group 17823" transform="translate(0 85.261)">
              <path id="Path_196326" data-name="Path 196326" d="M813.726,446.44a.347.347,0,0,1-.112-.677,53.349,53.349,0,0,0,17.205-9.634.348.348,0,0,1,.447.533,54.024,54.024,0,0,1-17.429,9.759.344.344,0,0,1-.111.019Z" transform="translate(-813.377 -436.048)" fill="#0396c8"/>
            </g>
          </g>
          <g id="Group_17827" data-name="Group 17827" transform="translate(3.929 6.371)">
            <g id="Group_17825" data-name="Group 17825" transform="translate(1.041 48.899)">
              <path id="Path_196327" data-name="Path 196327" d="M716.668,317.424a.347.347,0,0,1-.34-.277c-.835-4.028-1.51-8.287-2.006-12.658a.348.348,0,1,1,.691-.079c.494,4.35,1.165,8.587,2,12.595a.347.347,0,0,1-.27.411A.361.361,0,0,1,716.668,317.424Z" transform="translate(-714.32 -304.102)" fill="#b2ebf3"/>
            </g>
            <g id="Group_17826" data-name="Group 17826">
              <path id="Path_196328" data-name="Path 196328" d="M712.818,236.022a.348.348,0,0,1-.347-.32,165.929,165.929,0,0,1-.278-22.923l.016-.261.255-.057c25.22-5.611,38.158-15.473,43.625-20.852a.348.348,0,0,1,.488.5c-5.5,5.413-18.484,15.319-43.706,20.977a165.681,165.681,0,0,0,.294,22.563.347.347,0,0,1-.318.374A.133.133,0,0,1,712.818,236.022Z" transform="translate(-711.923 -191.51)" fill="#b2ebf3"/>
            </g>
          </g>
          <path id="Path_196329" data-name="Path 196329" d="M764.63,312.341c-18.052-6.9-29.877-23.405-35.166-49.107a152.377,152.377,0,0,1-2.823-33.737c19.221-4.925,31.186-12.272,37.989-17.78,6.8,5.506,18.766,12.851,37.98,17.777a152.78,152.78,0,0,1-2.912,34.214C794.358,289.14,782.567,305.485,764.63,312.341Z" transform="translate(-716.289 -196.57)" fill="#d5e7ff"/>
          <g id="Group_17830" data-name="Group 17830" transform="translate(13.298 23.766)">
            <g id="Group_17828" data-name="Group 17828" transform="translate(8.171 59.567)">
              <path id="Path_196330" data-name="Path 196330" d="M756.419,377.039a.347.347,0,0,1-.3-.174,69.081,69.081,0,0,1-3.781-7.667.348.348,0,0,1,.641-.269,68.229,68.229,0,0,0,3.742,7.589.347.347,0,0,1-.3.521Z" transform="translate(-752.309 -368.716)" fill="#fff"/>
            </g>
            <g id="Group_17829" data-name="Group 17829">
              <path id="Path_196331" data-name="Path 196331" d="M739.382,284.629a.347.347,0,0,1-.332-.243,106.44,106.44,0,0,1-2.748-10.636,147.37,147.37,0,0,1-2.8-30.192l0-.261.253-.07a111.756,111.756,0,0,0,27.868-11.615.348.348,0,0,1,.359.6A112.3,112.3,0,0,1,734.2,243.825a146.536,146.536,0,0,0,2.787,29.784,105.4,105.4,0,0,0,2.73,10.567.347.347,0,0,1-.226.436A.353.353,0,0,1,739.382,284.629Z" transform="translate(-733.495 -231.561)" fill="#fff"/>
            </g>
          </g>
          <g id="Group_17831" data-name="Group 17831" transform="translate(47.992 65.995)">
            <path id="Path_196332" data-name="Path 196332" d="M813.726,375.074a.347.347,0,0,1-.133-.669,44.938,44.938,0,0,0,19.461-15.6c5.511-7.644,9.592-17.645,12.13-29.733a.348.348,0,0,1,.681.143c-2.558,12.184-6.678,22.276-12.247,30a45.621,45.621,0,0,1-19.761,15.836.345.345,0,0,1-.131.026Z" transform="translate(-813.378 -328.796)" fill="#6acef0"/>
          </g>
          <g id="Group_17832" data-name="Group 17832" transform="translate(29.471 45.116)">
            <path id="Path_196333" data-name="Path 196333" d="M808.526,294.731H795.015v-13.51H784.744V294.73H771.235V305h13.509V318.51h10.271V305h13.511Z" transform="translate(-771.017 -281.004)" fill="#7cd9a6"/>
            <path id="Path_196334" data-name="Path 196334" d="M794.949,318.446H784.243V304.936H770.734V294.23h13.509V280.721h10.706V294.23H808.46v10.706H794.949Zm-10.271-.434h9.837V304.5h13.511v-9.837H794.515V281.155h-9.837v13.509H771.168V304.5h13.509Z" transform="translate(-770.734 -280.721)" fill="#7cd9a6"/>
          </g>
        </g>
      </g>
      <g id="Group_297982" data-name="Group 297982" transform="translate(-2209.912 119.939)">
        <path id="Path_102054" data-name="Path 102054" d="M205.551,128.7c13.448-1.582,26.824-.517,40.248,2.086a10.726,10.726,0,0,1,8.615,9.256c1.455,12.852,3.115,41.664-3.368,84.64,0,0-54.949-4.626-54.949-4.626-.115-7.8,5.435-43.327.85-80.208A9.862,9.862,0,0,1,205.551,128.7Z" transform="translate(-175.665 -69.081)" fill="#fff"/>
        <path id="Path_102055" data-name="Path 102055" d="M221.6,138.3l-1.97,3.939a1.223,1.223,0,0,1-1.031.674l-2.125.109a1.632,1.632,0,0,1-1.061-.322l-3.666-2.727,4.527-3.294Z" transform="translate(-159.711 -67.666)" fill="#263238"/>
        <path id="Path_102056" data-name="Path 102056" d="M214.135,141.221a3.536,3.536,0,0,1,2.48-.2c1.734,6.1,3.632,23.616,3.821,31.36-5.25,15.3-6.966,16.849-6.966,16.849L210.8,170.81S213.789,151.985,214.135,141.221Z" transform="translate(-157.452 -66.983)" fill="#263238"/>
        <path id="Path_102057" data-name="Path 102057" d="M213.422,105.795c1.255,7.578,2.32,21.431-3.108,26.324,3.98,4.179,9.2,9.025,18.148,9.572s7.567-5.651,5.3-8.963c-8.353-2.226-7.95-8.458-6.31-14.278Z" transform="translate(-171.903 -72.677)" fill="#ffb573"/>
        <path id="Path_102058" data-name="Path 102058" d="M216.88,127.962a10.926,10.926,0,0,1,1.973-.64.773.773,0,0,1,.864.358c.868,1.469,3.5,8.009,17.6,10.524-2.316,1.369-5.4,5.63-6.736,7.665-4.229-2.194-15.236-8.763-14.184-17.257A.846.846,0,0,1,216.88,127.962Z" transform="translate(-180.757 -69.188)" fill="#f5f5f5"/>
        <path id="Path_102059" data-name="Path 102059" d="M211.488,129.4a.82.82,0,0,1,.952-.976,11.824,11.824,0,0,1,1.441.391.983.983,0,0,1,.3.172c1.08,1,6.972,9.5,1.457,16.385-1.226-1.867-5.171-6.116-9.366-7.353C210.238,136.227,212.2,132.9,211.488,129.4Z" transform="translate(-149.708 -69.007)" fill="#f5f5f5"/>
        <path id="Path_102060" data-name="Path 102060" d="M217.547,110.238l8.3,7.485a24.27,24.27,0,0,0-.847,4.14c-3.2-.547-7.509-4.188-7.751-7.559A11.318,11.318,0,0,1,217.547,110.238Z" transform="translate(-170.309 -71.956)" opacity="0.2"/>
        <path id="Path_102061" data-name="Path 102061" d="M214.2,86.188c7.155,2.8,7.628,8.682,6.92,15.12s-7.642,2.172-9.194-1.84S204.281,82.312,214.2,86.188Z" transform="translate(-155.869 -75.973)" fill="#263238"/>
        <path id="Path_102062" data-name="Path 102062" d="M208.772,99.433c1.987,10.122,2.642,16.137,8.439,20.8,8.721,7.012,20.548.951,21.591-9.492.938-9.4-2.47-24.373-12.889-27.325C215.647,80.506,206.784,89.31,208.772,99.433Z" transform="translate(-173.28 -76.399)" fill="#ffb573"/>
        <path id="Path_102063" data-name="Path 102063" d="M214.07,108.719c8.523.452,6.715-4.39,5.166-7.166s1.613-7.362-.452-9.75c3.68,1.463,7.545.258,12.462-3.164,3.816-2.657,8.588,7.979,13.237,2.646,4.391-5.036.311-12.624-10.235-13.849s-12.471,6.249-19.4,5.585-4.52,5.037-3.164,6.2C205.87,89.607,202.706,95.16,214.07,108.719Z" transform="translate(-178.162 -77.3)" fill="#263238"/>
        <path id="Path_102064" data-name="Path 102064" d="M240.759,89.2a8.509,8.509,0,0,1-4.424-7.424C234.076,85.813,234.328,90.391,240.759,89.2Z" transform="translate(-205.948 -76.573)" fill="#263238"/>
        <path id="Path_102065" data-name="Path 102065" d="M220.365,106.658a7.006,7.006,0,0,1-5.322-1.256.241.241,0,1,1,.306-.373,6.717,6.717,0,0,0,5.916.918.253.253,0,0,1,.309.164.238.238,0,0,1-.156.3A7.937,7.937,0,0,1,220.365,106.658Z" transform="translate(-163.424 -72.81)" fill="#263238"/>
        <path id="Path_102066" data-name="Path 102066" d="M228.566,107.987a10,10,0,0,0,6.5,3.747c3.389.434,4.51-2.717,3.087-5.659-1.281-2.648-4.586-6.065-7.756-5.143C227.276,101.84,226.617,105.456,228.566,107.987Z" transform="translate(-195.141 -73.491)" fill="#ffb573"/>
        <path id="Path_102069" data-name="Path 102069" d="M219.653,97.864c.112.83.637,1.454,1.174,1.394s.882-.781.771-1.611-.637-1.454-1.174-1.394S219.541,97.035,219.653,97.864Z" transform="translate(-168.896 -74.225)" fill="#263238"/>
        <path id="Path_102070" data-name="Path 102070" d="M211.492,97.188c.112.83.637,1.454,1.174,1.394s.882-.781.771-1.611-.637-1.454-1.174-1.394S211.38,96.359,211.492,97.188Z" transform="translate(-151.25 -74.335)" fill="#263238"/>
        <path id="Path_102071" data-name="Path 102071" d="M211.158,97.842a29.049,29.049,0,0,0,5,5.854c-1.231,1.3-3.785.938-3.785.938Z" transform="translate(-153.592 -73.967)" fill="#ed893e"/>
        <g id="Group_297616" data-name="Group 297616" transform="translate(34.555 22.915)">
          <path id="Path_102072" data-name="Path 102072" d="M214.7,97.181c.171,1.323-1.188,2.43-3.015,2.665s-3.549-.787-3.72-2.109" transform="translate(-182.989 -96.989)" fill="#407bff" opacity="0.4"/>
          <path id="Path_102073" data-name="Path 102073" d="M224.111,98.241c.25,1.311-1.039,2.5-2.849,2.842s-3.591-.572-3.84-1.882" transform="translate(-203.407 -96.817)" fill="#407bff" opacity="0.4"/>
          <path id="Path_102074" data-name="Path 102074" d="M224.872,101.6a5.179,5.179,0,0,0,.625-.04,4.322,4.322,0,0,0,2.4-1.077,2.4,2.4,0,0,0,.838-2.058,5.945,5.945,0,0,1,1.865-.468,4.069,4.069,0,0,1,1.962.042c.163,1.411,1.927,2.394,3.9,2.15a4.326,4.326,0,0,0,2.406-1.077,2.393,2.393,0,0,0,.837-2.057l-.554.07a1.856,1.856,0,0,1-.666,1.579,3.749,3.749,0,0,1-2.093.929c-1.664.221-3.153-.559-3.3-1.727-.083-.645-1.435-.607-2.555-.464s-2.438.45-2.356,1.095a1.858,1.858,0,0,1-.665,1.579,4.01,4.01,0,0,1-4.354.56,1.858,1.858,0,0,1-1.044-1.359L222.086,99l-14.349,1.843.072.557,13.813-1.776a2.476,2.476,0,0,0,1.275,1.5A4.152,4.152,0,0,0,224.872,101.6Z" transform="translate(-207.737 -97.016)" fill="#263238"/>
        </g>
        <path id="Path_102075" data-name="Path 102075" d="M221.717,94.948a.5.5,0,0,1-.424-.742,4.686,4.686,0,0,1,3.658-2.451.5.5,0,0,1,.517.471.474.474,0,0,1-.451.509h0a3.745,3.745,0,0,0-2.875,1.973A.473.473,0,0,1,221.717,94.948Z" transform="translate(-174.604 -74.955)" fill="#263238"/>
        <path id="Path_102076" data-name="Path 102076" d="M214.327,93.751a.5.5,0,0,1-.428-.182,3.94,3.94,0,0,0-3.2-1.548.5.5,0,0,1-.539-.442.474.474,0,0,1,.423-.533,4.927,4.927,0,0,1,4.064,1.911.49.49,0,0,1-.059.689A.476.476,0,0,1,214.327,93.751Z" transform="translate(-151.021 -75.071)" fill="#263238"/>
        <path id="Path_102078" data-name="Path 102078" d="M147.258,143.787l4.457-2.838a3.755,3.755,0,0,1,4.719.547l3.043,3.209a3.484,3.484,0,0,1-.3,5.079L157,151.641a17.682,17.682,0,0,1-6.469,3.505l-6.567,1.936-4.307-4.625C138.376,147.583,147.258,143.787,147.258,143.787Z" transform="translate(-14.61 -67.069)" fill="#ffb573"/>
        <g id="Group_297619" data-name="Group 297619" transform="translate(66.249 68.742)">
          <g id="Group_297617" data-name="Group 297617">
            <path id="Path_102079" data-name="Path 102079" d="M147.512,142.254c1.626,3.975,3.221,7.667,4.956,11.449,1.732,3.751,3.5,7.5,5.431,11.21s4.01,7.394,6.355,11.085c1.187,1.843,2.455,3.682,3.91,5.524a35.031,35.031,0,0,0,5.35,5.543,18.869,18.869,0,0,0,4.294,2.646,15.6,15.6,0,0,0,1.475.54l.81.224a12.492,12.492,0,0,0,1.238.221,11.514,11.514,0,0,0,4.236-.311,17.106,17.106,0,0,0,4.863-2.211,29.932,29.932,0,0,0,3.194-2.362,76.965,76.965,0,0,0,9.236-9.62c2.71-3.25,5.265-6.518,7.714-9.846,2.472-3.339,4.82-6.611,7.231-10.116l-12.852-8.295A174.337,174.337,0,0,1,191.521,166.7a63.7,63.7,0,0,1-7.407,7.658,15.333,15.333,0,0,1-1.636,1.2c-.435.287-.862.408-.566.3a3.191,3.191,0,0,1,1.262-.067,3.715,3.715,0,0,1,.5.087.284.284,0,0,1,.088.017c.056.022.056,0,.069.019a7.276,7.276,0,0,1-.757-.567,20.907,20.907,0,0,1-2.86-3.188c-1-1.321-1.977-2.8-2.922-4.348a106.92,106.92,0,0,1-5.256-9.93c-1.626-3.46-3.19-7-4.621-10.6-1.419-3.577-2.839-7.3-4.007-10.833Z" transform="translate(-147.512 -136.446)" fill="#a7d1fb"/>
          </g>
        </g>
        <g id="Group_297620" data-name="Group 297620" transform="translate(3.308 56.561)">
          <path id="Path_102081" data-name="Path 102081" d="M225.861,126.115c4.358,8.083,19.875,39.133,21.754,58.261,6.872-17.387,5.368-56,5.368-56,3.379.089,9.573,1.589,14.266,3.43a8.591,8.591,0,0,1,5.371,7.329,304.787,304.787,0,0,1-1.885,59.825c-4.819,37.538-9.335,95.91-9.335,95.91s-38.411-1.6-68.043-7.851c3.617-28.691,15.984-76.786,16.095-89.668.143-16.574-.241-48.979-.766-62.5a8,8,0,0,1,6.416-8.217A40.138,40.138,0,0,1,225.861,126.115Z" transform="translate(-193.357 -125.965)" fill="#a7d1fb"/>
        </g>
        <path id="Path_102083" data-name="Path 102083" d="M216.32,279.53c6.669-36.8,11.963-90.812,12.394-97.313l-.6-.041c-.431,6.5-5.722,60.465-12.386,97.247Z" transform="translate(-171.451 -60.285)" fill="#2382ff"/>
        <g id="Group_297621" data-name="Group 297621" transform="translate(46.156 93.156)">
          <path id="Path_102084" data-name="Path 102084" d="M182.206,217.995h35.417a3.314,3.314,0,0,0,3.071-2.527l11.85-55.055a1.983,1.983,0,0,0-1.983-2.527H195.144a3.316,3.316,0,0,0-3.071,2.527l-11.85,55.055A1.983,1.983,0,0,0,182.206,217.995Z" transform="translate(-180.165 -157.382)" fill="#fff"/>
          <path id="Path_102085" data-name="Path 102085" d="M180.568,218.569h36.011A3.373,3.373,0,0,0,219.7,216l12.048-55.978a2.016,2.016,0,0,0-2.016-2.57H193.722a3.372,3.372,0,0,0-3.122,2.57L178.551,216A2.016,2.016,0,0,0,180.568,218.569Z" transform="translate(-177.428 -157.452)" fill="#527fba"/>
        </g>
        <path id="Path_102086" data-name="Path 102086" d="M212.415,182.869l8.963-.335a7.693,7.693,0,0,1,3.155.549l4.626,1.858a3.486,3.486,0,0,1,1.906,4.719l-1.862,4.011a3.752,3.752,0,0,1-4.3,2.021l-5.129-1.269s-9.628-.769-9.972-5.8Z" transform="translate(-167.249 -60.228)" fill="#ffb573"/>
        <g id="Group_297624" data-name="Group 297624" transform="translate(0 61.688)">
          <g id="Group_297622" data-name="Group 297622">
            <path id="Path_102087" data-name="Path 102087" d="M243.072,130.377c-2.226,3.436-4.249,6.675-6.259,10.088-2,3.381-3.963,6.8-5.812,10.338s-3.606,7.177-5.2,11.083a57.256,57.256,0,0,0-2.12,6.267,26.31,26.31,0,0,0-1.024,7.987l.013.3.007.151c0,.036,0,.1.019.229.047.42.11.841.192,1.254.088.37.191.738.306,1.1s.238.643.371.964a12.916,12.916,0,0,0,1.7,2.814,20.2,20.2,0,0,0,3.225,3.212,41.782,41.782,0,0,0,5.793,3.845,108.371,108.371,0,0,0,11.07,5.273c3.655,1.56,7.312,2.977,10.982,4.315,3.684,1.368,7.288,2.624,11.106,3.905l4.426-14.642c-3.441-.957-7.039-2.123-10.509-3.308-3.48-1.221-6.925-2.512-10.274-3.893a90.642,90.642,0,0,1-9.465-4.575,27.54,27.54,0,0,1-3.685-2.453,4.1,4.1,0,0,1-.805-.8,1.318,1.318,0,0,1,.224.386c.048.1.064.167.114.3a2.238,2.238,0,0,1,.113.415,2.816,2.816,0,0,1,.089.549c0,.066,0,.076.006.052l0-.027.006-.052a13.416,13.416,0,0,1,.631-3.238,42.369,42.369,0,0,1,1.657-4.475,89.166,89.166,0,0,1,4.811-9.379c1.814-3.118,3.737-6.228,5.774-9.279,2.03-3.021,4.185-6.127,6.317-8.914Z" transform="translate(-222.645 -130.377)" fill="#a7d1fb" stroke="#4d9be6" stroke-width="1"/>
          </g>
        </g>
        <path id="Path_102089" data-name="Path 102089" d="M230.365,170.206a.461.461,0,0,0,.249-.85L228.8,168.2a9.866,9.866,0,0,1-4.413-10.3l3.647-18.485a6.256,6.256,0,0,1,12.154-.509l5.177,18.118a9.862,9.862,0,0,1-3.538,10.629l-1.714,1.3a.462.462,0,0,0,.559.736l1.713-1.3a10.78,10.78,0,0,0,3.867-11.618l-5.177-18.118a7.178,7.178,0,0,0-13.945.583l-3.648,18.485a10.782,10.782,0,0,0,4.823,11.254l1.817,1.155A.458.458,0,0,0,230.365,170.206Z" transform="translate(-198.178 -68.19)" fill="#263238"/>
        <path id="Path_102090" data-name="Path 102090" d="M228.534,139.11h.02l13.048-.546a.46.46,0,0,0,.442-.48.488.488,0,0,0-.48-.44l-13.048.545a.461.461,0,0,0,.019.922Z" transform="translate(-199.134 -67.51)" fill="#263238"/>
        <path id="Path_102091" data-name="Path 102091" d="M231.562,135.446a.46.46,0,0,0,.46-.45c.055-2.272.728-6.355,2.9-7.248a.461.461,0,1,0-.35-.853c-3.222,1.32-3.458,7.391-3.475,8.079a.461.461,0,0,0,.45.472Z" transform="translate(-195.819 -69.259)" fill="#263238"/>
        <path id="Path_102092" data-name="Path 102092" d="M213.213,151.167a.411.411,0,0,0,.092-.009.461.461,0,0,0,.361-.543c-1.53-7.636-7.878-19.7-13.467-23.223a.462.462,0,0,0-.493.781c5.4,3.408,11.561,15.164,13.055,22.624A.461.461,0,0,0,213.213,151.167Z" transform="translate(-137.547 -69.184)" fill="#263238"/>
        <path id="Path_102093" data-name="Path 102093" d="M199.425,149.477c.725,1.848,2.3,2.959,3.522,2.48s1.62-2.365.894-4.214-2.3-2.96-3.522-2.481S198.7,147.628,199.425,149.477Z" transform="translate(-127.574 -66.292)" fill="#fff"/>
        <path id="Path_102094" data-name="Path 102094" d="M227.784,164.582c.037.868.53,1.553,1.1,1.528s1.008-.747.972-1.616-.53-1.553-1.1-1.528S227.748,163.713,227.784,164.582Z" transform="translate(-186.611 -63.402)" fill="#fff"/>
        <path id="Path_102095" data-name="Path 102095" d="M236.408,164.942c.036.868.53,1.553,1.1,1.529s1.008-.747.972-1.617-.53-1.553-1.1-1.528S236.372,164.073,236.408,164.942Z" transform="translate(-205.259 -63.343)" fill="#fff"/>
      </g>
      <g id="freepik--character-2--inject-2" transform="translate(-2055.148 94.593)">
        <path id="Path_102891" data-name="Path 102891" d="M618.74,444l4.45,18.928,8.805,15.1a2.173,2.173,0,0,1-.916,3.046h0a2.139,2.139,0,0,1-1.994,0c-3.953-2.131-18.449-10.046-18.74-11.569-.342-1.771-6.076-21.692-6.076-21.692Z" transform="translate(-526.083 -173.988)" fill="#072e41"/>
        <g id="Group_297842" data-name="Group 297842" transform="translate(83.877 294.126)" opacity="0.6">
          <path id="Path_102892" data-name="Path 102892" d="M632.039,485.17,610.92,472.18l.24.856a3.286,3.286,0,0,0,1.309,1.84c1.711,1.164,6.555,4.279,17.516,10.269a2.182,2.182,0,0,0,2.054,0Z" transform="translate(-610.92 -472.18)" fill="#fff"/>
        </g>
        <g id="Group_297843" data-name="Group 297843" transform="translate(84.617 286.31)" opacity="0.6">
          <path id="Path_102893" data-name="Path 102893" d="M613.415,463.1a1.326,1.326,0,0,1,.813,1.566,1.266,1.266,0,0,1-1.54.8,1.378,1.378,0,0,1-.856-1.652,1.309,1.309,0,0,1,1.711-.667" transform="translate(-611.784 -463.046)" fill="#fff"/>
        </g>
        <path id="Path_102894" data-name="Path 102894" d="M627.231,477.865a6.7,6.7,0,0,1,1.352-2.088,6.847,6.847,0,0,1,2.233-1.1c0-.051-.3-.137-.8-.077a3.466,3.466,0,0,0-1.711.856,3.421,3.421,0,0,0-1.027,1.634C627.129,477.557,627.18,477.865,627.231,477.865Z" transform="translate(-529.389 -178.4)" fill="#263238"/>
        <path id="Path_102895" data-name="Path 102895" d="M629.826,480.757c.12.068.6-.779,1.566-1.378a18.647,18.647,0,0,1,1.934-.856,2.422,2.422,0,0,0-2.182.419C630.04,479.67,629.706,480.731,629.826,480.757Z" transform="translate(-529.767 -178.955)" fill="#263238"/>
        <path id="Path_102896" data-name="Path 102896" d="M622.929,474.542a23.611,23.611,0,0,1,2.285-2.293,23.214,23.214,0,0,1,2.841-1.549,5.99,5.99,0,0,0-5.134,3.842Z" transform="translate(-528.774 -177.84)" fill="#263238"/>
        <path id="Path_102897" data-name="Path 102897" d="M620.48,467.691c.086.111,1.087-.676,2.567-1.138s2.721-.428,2.73-.565a5.434,5.434,0,0,0-5.271,1.711Z" transform="translate(-528.422 -177.141)" fill="#263238"/>
        <path id="Path_102898" data-name="Path 102898" d="M618.519,460.689a6.9,6.9,0,0,1,5.519-1.326c0-.051-.274-.248-.856-.394a4.732,4.732,0,0,0-4.142,1C618.647,460.355,618.476,460.689,618.519,460.689Z" transform="translate(-528.138 -176.13)" fill="#263238"/>
        <path id="Path_102899" data-name="Path 102899" d="M620.549,457.542a1.943,1.943,0,0,0-.188-.779,5.656,5.656,0,0,0-1.172-1.857,2.481,2.481,0,0,0-1.344-.856.856.856,0,0,0-.856.454,1.42,1.42,0,0,0-.06,1.01,3.081,3.081,0,0,0,3.354,2.028,3.568,3.568,0,0,0,2.875-2.738,1.2,1.2,0,0,0-.214-1,.856.856,0,0,0-.984-.205,3.02,3.02,0,0,0-1.155,1.078,6.256,6.256,0,0,0-.958,1.977,1.927,1.927,0,0,0-.12.8,9.873,9.873,0,0,1,1.335-2.567,2.781,2.781,0,0,1,1.035-.907.436.436,0,0,1,.53.1.856.856,0,0,1,.111.667,3.209,3.209,0,0,1-2.524,2.345,2.67,2.67,0,0,1-2.875-1.712,1,1,0,0,1,0-.71.462.462,0,0,1,.488-.257,2.216,2.216,0,0,1,1.147.7,8.309,8.309,0,0,1,1.575,2.43Z" transform="translate(-527.901 -175.362)" fill="#263238"/>
        <g id="Group_297844" data-name="Group 297844" transform="translate(78.837 273.692)" opacity="0.3">
          <path id="Path_102900" data-name="Path 102900" d="M605.03,450.687l.8,2.832,14.359-3.158-.479-2.062Z" transform="translate(-605.03 -448.3)"/>
        </g>
        <path id="Path_102901" data-name="Path 102901" d="M552.085,449.732l.993,15.121s-15.035,6.093-15.078,8.908l29.394-.856-.59-23.635Z" transform="translate(-516.522 -174.748)" fill="#072e41"/>
        <g id="Group_297845" data-name="Group 297845" transform="translate(44.207 288.515)" opacity="0.6">
          <path id="Path_102902" data-name="Path 102902" d="M565.964,465.663a1.207,1.207,0,0,1,.856,1.343,1.155,1.155,0,0,1-1.326.856,1.275,1.275,0,0,1-.916-1.429,1.207,1.207,0,0,1,1.48-.762" transform="translate(-564.561 -465.622)" fill="#fff"/>
        </g>
        <g id="Group_297846" data-name="Group 297846" transform="translate(21.401 295.769)" opacity="0.6">
          <path id="Path_102903" data-name="Path 102903" d="M567.338,476.462l-.06-2.362-28.239,1.711s-1.292.608-1.112,1.523Z" transform="translate(-537.91 -474.1)" fill="#fff"/>
        </g>
        <path id="Path_102904" data-name="Path 102904" d="M555.06,467.294c0,.146.727.188,1.455.633s1.112,1.027,1.241.967-.111-.856-.993-1.4S555.008,467.166,555.06,467.294Z" transform="translate(-518.983 -177.326)" fill="#263238"/>
        <path id="Path_102905" data-name="Path 102905" d="M551.5,468.91c0,.137.608.368,1.112.958s.659,1.232.8,1.224.214-.856-.428-1.557S551.5,468.773,551.5,468.91Z" transform="translate(-518.469 -177.574)" fill="#263238"/>
        <path id="Path_102906" data-name="Path 102906" d="M549.384,472.879c.128,0,.308-.693-.086-1.472s-1.07-1.061-1.13-.941.368.531.684,1.172S549.239,472.87,549.384,472.879Z" transform="translate(-517.988 -177.803)" fill="#263238"/>
        <path id="Path_102907" data-name="Path 102907" d="M555.239,463.166c.068.137.719-.086,1.532-.051s1.455.265,1.523.137-.548-.616-1.506-.642S555.171,463.063,555.239,463.166Z" transform="translate(-519.008 -176.673)" fill="#263238"/>
        <g id="Group_297847" data-name="Group 297847" transform="translate(35.623 275.112)" opacity="0.3">
          <path id="Path_102908" data-name="Path 102908" d="M554.53,450.371l.171,2.687,14.53-.419V449.96Z" transform="translate(-554.53 -449.96)"/>
        </g>
        <path id="Path_102909" data-name="Path 102909" d="M555.07,459.273a2.687,2.687,0,0,0,1.472-.051,6.309,6.309,0,0,0,1.532-.513,6.9,6.9,0,0,0,.856-.479,1.711,1.711,0,0,0,.436-.359.625.625,0,0,0,.043-.762.8.8,0,0,0-.642-.308,1.714,1.714,0,0,0-.548.094,5.06,5.06,0,0,0-2.242,1.267,3.4,3.4,0,0,0-.856,1.224c0,.026.385-.411,1.07-.958a6.129,6.129,0,0,1,1.284-.779,6.435,6.435,0,0,1,.856-.282c.308-.094.573-.1.659,0s0,.068,0,.163a1.763,1.763,0,0,1-.317.265,7.442,7.442,0,0,1-.77.471,8.2,8.2,0,0,1-1.4.582,11.569,11.569,0,0,0-1.429.428Z" transform="translate(-518.985 -175.835)" fill="#263238"/>
        <path id="Path_102910" data-name="Path 102910" d="M554.956,459.152a2.4,2.4,0,0,0,.342-1.438,4.545,4.545,0,0,0-.248-1.6,4.479,4.479,0,0,0-.4-.856,1.215,1.215,0,0,0-.958-.719.7.7,0,0,0-.608.428,2.086,2.086,0,0,0-.128.548,3.485,3.485,0,0,0,0,.993,3.423,3.423,0,0,0,.676,1.5c.6.744,1.2.9,1.215.856a5.953,5.953,0,0,1-.933-1.053,3.488,3.488,0,0,1-.5-1.369,3.115,3.115,0,0,1,0-.856c.043-.317.145-.573.265-.548a1.047,1.047,0,0,1,.531.471,4.5,4.5,0,0,1,.394.787,5.345,5.345,0,0,1,.325,1.463C555.016,458.588,554.879,459.135,554.956,459.152Z" transform="translate(-518.674 -175.509)" fill="#263238"/>
        <path id="Path_102911" data-name="Path 102911" d="M596.07,162.46a2.67,2.67,0,0,0-.351,3.329,9.037,9.037,0,0,0,2.567,2.567,6.05,6.05,0,0,1,2.328,2.738c.7,2.139-.856,4.57,0,6.657.719,1.814,2.952,2.567,3.945,4.279s.454,3.945-.282,5.819-1.643,3.834-1.258,5.81c.214,1.087.856,2.131.693,3.235-.18,1.6-1.788,2.567-3.312,3.14a15.343,15.343,0,0,1-7.787.6,6.965,6.965,0,0,1-4.818-2.781,8.971,8.971,0,0,1-.856-4.766,139.834,139.834,0,0,1,3.508-28.239" transform="translate(-523.583 -133.366)" fill="#263238"/>
        <path id="Path_102912" data-name="Path 102912" d="M535.708,231.228l9.079-21.624s6.324-19.681,16.4-19.365l2.43,17.713L549.656,238l-14.966-6.435" transform="translate(-516.044 -137.373)" fill="#e0e0e0"/>
        <path id="Path_102913" data-name="Path 102913" d="M552.8,251.79s-16.4,32.355-16.13,42.478c.154,5.631,8.754,127.767,8.754,127.767h24.747l-4.578-127.4,25.962,128.28,21.915-3.56L596,282.176S593,263.5,586.84,255.846Z" transform="translate(-516.329 -146.255)" fill="#263238"/>
        <path id="Path_102914" data-name="Path 102914" d="M569.871,286.22a51.031,51.031,0,0,1,.471,6.683,49.438,49.438,0,0,1,0,6.7,51.041,51.041,0,0,1-.471-6.683,49.487,49.487,0,0,1,0-6.7Z" transform="translate(-521.104 -151.222)" fill="#455a64"/>
        <path id="Path_102915" data-name="Path 102915" d="M604.8,299.117a2.414,2.414,0,0,1-.77.18,12.227,12.227,0,0,1-2.165.077,13.169,13.169,0,0,1-11.321-7.7,11.981,11.981,0,0,1-.719-2.045,2.659,2.659,0,0,1-.12-.787c.086,0,.317,1.087,1.121,2.7a13.691,13.691,0,0,0,11.056,7.53C603.649,299.245,604.8,299.04,604.8,299.117Z" transform="translate(-523.982 -151.601)" fill="#455a64"/>
        <path id="Path_102916" data-name="Path 102916" d="M546.648,287.1a7.315,7.315,0,0,1-.856,1.985,20.443,20.443,0,0,1-3.1,4.21,19.98,19.98,0,0,1-4.082,3.277,7.092,7.092,0,0,1-1.943.941,26.928,26.928,0,0,0,9.978-10.414Z" transform="translate(-516.33 -151.35)" fill="#455a64"/>
        <path id="Path_102917" data-name="Path 102917" d="M571.91,430.562a1.6,1.6,0,0,1-.043-.342c0-.248-.051-.573-.086-1-.068-.907-.163-2.2-.282-3.851-.223-3.363-.548-8.2-.941-14.162-.753-11.98-1.8-28.5-2.944-46.739s-2.131-34.793-2.79-46.765a43.245,43.245,0,0,1,1.5-14.094,9.959,9.959,0,0,1,1.78-3.423,3.765,3.765,0,0,1,.719-.7l.274-.214a1.713,1.713,0,0,1-.248.248,4.058,4.058,0,0,0-.676.719,10.419,10.419,0,0,0-1.711,3.423,44.53,44.53,0,0,0-1.352,14.034c.753,11.98,1.788,28.5,2.927,46.739s2.088,34.768,2.815,46.756c.334,5.99.608,10.8.8,14.171.086,1.652.154,2.952.2,3.859a6.581,6.581,0,0,0,.043,1,1.715,1.715,0,0,1,.026.342Z" transform="translate(-520.388 -153.105)" fill="#455a64"/>
        <path id="Path_102918" data-name="Path 102918" d="M621.876,428.561c-.12,0-4.167-28.521-9.036-63.742S604.12,301,604.24,301s4.167,28.512,9.036,63.742S622,428.544,621.876,428.561Z" transform="translate(-526.079 -153.355)" fill="#455a64"/>
        <path id="Path_102919" data-name="Path 102919" d="M589.152,243.656l4.664-23.6,3.6-25.38A23.524,23.524,0,0,0,585.9,189.19l-21.624.9-8.146,19.117.856,39.508Z" transform="translate(-519.138 -137.222)" fill="#e0e0e0"/>
        <path id="Path_102920" data-name="Path 102920" d="M589.625,189.66S579.3,212.585,573.854,214.1c-2.439,9.712-4.6,61.081-4.6,61.081l34.015-1.369L593.21,240.438l4.065-16.7s-4.415-26.433.317-31C594.9,190.978,592.714,189.848,589.625,189.66Z" transform="translate(-521.031 -137.29)" fill="#6abd90"/>
        <path id="Path_102921" data-name="Path 102921" d="M564.3,189.18a87.727,87.727,0,0,0-.856,13.6,16.943,16.943,0,0,0,4.612,10.962h0L563.539,275.1l-24.088-3.508s4.972-15.352,8.934-22.035c0,0,1.883-3.175,5.34-9.182,0,0-2.413-19.587-2.5-22.351,0-1.044,6.238-26.8,6.238-26.8a9.019,9.019,0,0,1,6.837-2.045Z" transform="translate(-516.731 -137.212)" fill="#6abd90"/>
        <path id="Path_102922" data-name="Path 102922" d="M560.089,154.182c-3.089-.813-4.989-1.908-4.989-3.123,0-2.5,8.078-4.518,18.038-4.518s18.03,2.02,18.03,4.518c0,1.207-1.874,2.3-4.929,3.115" transform="translate(-518.989 -131.069)" fill="#6abd90"/>
        <g id="Group_297848" data-name="Group 297848" transform="translate(38.402 16.25)" opacity="0.4">
          <path id="Path_102923" data-name="Path 102923" d="M562.2,154.227c-2.738-.719-4.492-1.711-4.415-2.764.188-2.986,7.154-4.013,15.985-4.013s15.976,1.8,15.976,4.013c0,1.061-1.66,2.037-4.373,2.755" transform="translate(-557.777 -147.45)"/>
        </g>
        <path id="Path_102924" data-name="Path 102924" d="M591.055,152.47c-.376,1.292.556,2.567,1.626,3.423s2.353,1.369,3.183,2.422a5.306,5.306,0,0,1,.462,5.211A11.92,11.92,0,0,1,592.9,167.8c-1.044.907-2.4,1.8-3.714,1.344" transform="translate(-523.908 -131.924)" fill="#263238"/>
        <path id="Path_102925" data-name="Path 102925" d="M599.607,193.26c-.428,0-2.011,4.03-3.192,7.7a24.277,24.277,0,0,0,1.977,19.536l7.487,13.161-22.54,7.565,3.3,10.551,31.542-8.463a9.165,9.165,0,0,0,6.281-5.8h0a9.148,9.148,0,0,0-.71-7.7l-16.447-28.239S601.969,193.251,599.607,193.26Z" transform="translate(-523.063 -137.81)" fill="#e0e0e0"/>
        <path id="Path_102926" data-name="Path 102926" d="M586.975,152.307a12.186,12.186,0,0,0-12.836-11.98A12.434,12.434,0,0,0,562.57,152.88a135.273,135.273,0,0,0,.4,13.546c.976,6.178,4.955,8.061,6.529,8.557a7.958,7.958,0,0,0,1.711.171h0v.043l-.334,7.308c.051,4.749,3.26,8.557,8.009,8.557s7.9-4.116,7.924-8.882Z" transform="translate(-520.067 -130.17)" fill="#ffbe9d"/>
        <path id="Path_102927" data-name="Path 102927" d="M565.28,158.565a.993.993,0,0,0,.958,1,.95.95,0,0,0,1.027-.856.984.984,0,0,0-.958-1,.95.95,0,0,0-1.027.856Z" transform="translate(-520.458 -132.68)" fill="#263238"/>
        <path id="Path_102928" data-name="Path 102928" d="M564.528,156.5c.128.137.856-.428,1.951-.419s1.857.539,1.968.4-.068-.291-.411-.539a2.73,2.73,0,0,0-1.574-.488,2.567,2.567,0,0,0-1.549.5C564.579,156.213,564.468,156.453,564.528,156.5Z" transform="translate(-520.347 -132.356)" fill="#263238"/>
        <path id="Path_102929" data-name="Path 102929" d="M577.52,158.565a.993.993,0,0,0,.958,1,.95.95,0,0,0,1.027-.856.993.993,0,0,0-.958-1,.95.95,0,0,0-1.027.856Z" transform="translate(-522.224 -132.68)" fill="#263238"/>
        <path id="Path_102930" data-name="Path 102930" d="M576.827,156.744c.128.128.856-.428,1.951-.428s1.857.539,1.977.411-.068-.291-.411-.548a2.721,2.721,0,0,0-1.583-.479,2.618,2.618,0,0,0-1.549.5C576.879,156.453,576.767,156.684,576.827,156.744Z" transform="translate(-522.122 -132.39)" fill="#263238"/>
        <path id="Path_102931" data-name="Path 102931" d="M571.837,164.688a6.913,6.913,0,0,0-1.711-.317c-.274,0-.531-.077-.582-.265a1.412,1.412,0,0,1,.188-.856l.8-2.079a36.084,36.084,0,0,0,1.814-5.451,37.057,37.057,0,0,0-2.251,5.288c-.265.736-.522,1.429-.77,2.1a1.592,1.592,0,0,0-.145,1.07.676.676,0,0,0,.453.4,1.952,1.952,0,0,0,.462.068,7.352,7.352,0,0,0,1.737.043Z" transform="translate(-521.016 -132.393)" fill="#263238"/>
        <path id="Path_102932" data-name="Path 102932" d="M572.681,180.533s4.133.334,9.3-2.773c0,0-1.626,5.468-9.413,4.741Z" transform="translate(-521.51 -135.573)" fill="#eb996e"/>
        <path id="Path_102933" data-name="Path 102933" d="M572.8,169.1a1.908,1.908,0,0,1,1.711-.719,1.754,1.754,0,0,1,1.215.65,1.112,1.112,0,0,1,.086,1.275,1.283,1.283,0,0,1-1.4.359,4.176,4.176,0,0,1-1.369-.856,1.171,1.171,0,0,1-.3-.317.334.334,0,0,1,0-.394" transform="translate(-521.525 -134.218)" fill="#eb996e"/>
        <path id="Path_102934" data-name="Path 102934" d="M575.426,167.07c-.171,0-.171,1.147-1.164,1.977s-2.233.693-2.242.856.274.222.8.24a2.9,2.9,0,0,0,1.874-.65,2.567,2.567,0,0,0,.907-1.66C575.614,167.344,575.486,167.061,575.426,167.07Z" transform="translate(-521.43 -134.031)" fill="#263238"/>
        <path id="Path_102935" data-name="Path 102935" d="M576.269,154.593c.1.291,1.172.154,2.43.3s2.276.5,2.439.231c.077-.12-.1-.394-.513-.676a4.056,4.056,0,0,0-1.806-.633,3.988,3.988,0,0,0-1.9.222C576.457,154.225,576.226,154.448,576.269,154.593Z" transform="translate(-522.042 -132.114)" fill="#263238"/>
        <path id="Path_102936" data-name="Path 102936" d="M564.994,153.947c.188.24.924,0,1.814,0s1.643.163,1.814-.086-.043-.368-.376-.6a2.618,2.618,0,0,0-2.918.086C564.994,153.579,564.9,153.835,564.994,153.947Z" transform="translate(-520.411 -131.98)" fill="#263238"/>
        <path id="Path_102937" data-name="Path 102937" d="M577.915,166.479a.141.141,0,1,1-.051.034" transform="translate(-522.268 -133.944)" fill="#263238"/>
        <path id="Path_102938" data-name="Path 102938" d="M570.58,148.836a6.846,6.846,0,0,0,5.032,2.927c1.309.1,2.807-.128,3.8.736a5.7,5.7,0,0,1,1.249,2.567,6.187,6.187,0,0,0,2.653,3.38c.993.556,2.233.8,2.952,1.711s.685,2.268.71,3.474.3,2.61,1.386,3.132q.06-6.58.12-13.187a5.247,5.247,0,0,0-.231-1.934c-.531-1.378-2.088-2.037-3.517-2.422a53.242,53.242,0,0,0-12.451-1.361" transform="translate(-521.222 -131.259)" fill="#263238"/>
        <path id="Path_102939" data-name="Path 102939" d="M558,147.481s2.567-10.6,2.8-11.124,3.243-5.134,10.465-6.486h5.99s8.472,2.73,10.02,4.792,2.208,12.083,2.208,12.083l-16.738-3.637-11.381,2.773Z" transform="translate(-519.407 -128.663)" fill="#6abd90"/>
        <path id="Path_102940" data-name="Path 102940" d="M575.085,128.46h-2.567a4.15,4.15,0,0,0-1.018,2.7c-.12,1.857-.539,14.547-.539,14.547l7.479-.334-.24-15.728,2.567.565-.077-.856-.676-.8Z" transform="translate(-521.277 -128.46)" fill="#6abd90"/>
        <path id="Path_102941" data-name="Path 102941" d="M561.72,150.335l.145-3.851,11.261-3.354,14.068,4.167v4.142a34.614,34.614,0,0,0-25.475-1.1Z" transform="translate(-519.944 -130.577)" fill="#455a64"/>
        <path id="Path_102942" data-name="Path 102942" d="M561.944,145.657l-.5.488-4.048,2.567a64.179,64.179,0,0,1,15.839-2.105c8.061.086,17.277,2.807,17.277,2.807l-5.34-3.209h0a9.19,9.19,0,0,0-6.529-2.918l-10.123-.2a9.242,9.242,0,0,0-6.58,2.567Z" transform="translate(-519.321 -130.571)" fill="#6abd90"/>
        <path id="Path_102943" data-name="Path 102943" d="M571.158,140.938a33.558,33.558,0,0,1,.077-5.391,32.568,32.568,0,0,1,.522-5.357,33.438,33.438,0,0,1-.077,5.382A32.907,32.907,0,0,1,571.158,140.938Z" transform="translate(-521.295 -128.71)" fill="#263238"/>
        <path id="Path_102944" data-name="Path 102944" d="M581.937,130.448a9.894,9.894,0,0,1-1.883-.24.488.488,0,0,0-.462.471v1.112c0,.813,0,1.669.06,2.567v4.681a8.786,8.786,0,0,1-.128,1.934,8.672,8.672,0,0,1-.188-1.934c-.06-1.2-.111-2.85-.145-4.672v-3.705a.856.856,0,0,1,.856-.762A6.957,6.957,0,0,1,581.937,130.448Z" transform="translate(-522.465 -128.668)" fill="#263238"/>
        <path id="Path_102945" data-name="Path 102945" d="M557.1,148.531a1.931,1.931,0,0,1,.317-.2c.214-.12.539-.274.967-.462s.95-.385,1.523-.685a4.278,4.278,0,0,0,1.643-1.352c.479-.616.548-1.592,1.215-2.413a2.3,2.3,0,0,1,1.386-.8,10.133,10.133,0,0,1,1.609-.145c2.182-.111,4.587-.145,7.111-.077s4.912.222,7.094.411a4.646,4.646,0,0,1,2.969,1.061,7.785,7.785,0,0,1,.856,1.138l.376.539.188.257a.65.65,0,0,0,.2.145c1.446.744,2.7,1.266,3.508,1.711.411.205.727.377.933.5a1.377,1.377,0,0,1,.317.214s-.479-.2-1.326-.556-2.079-.856-3.585-1.575a.856.856,0,0,1-.3-.222l-.2-.257c-.128-.171-.265-.351-.394-.539a7.891,7.891,0,0,0-.856-1.07,4.278,4.278,0,0,0-2.755-.916c-2.165-.171-4.552-.308-7.068-.377s-4.9-.051-7.068,0c-1.078,0-2.174,0-2.738.77s-.693,1.66-1.241,2.362a4.612,4.612,0,0,1-1.789,1.395c-.607.274-1.138.462-1.574.616A13.1,13.1,0,0,1,557.1,148.531Z" transform="translate(-519.277 -130.467)" fill="#263238"/>
        <path id="Path_102946" data-name="Path 102946" d="M558.87,149.809a1.336,1.336,0,0,1,.248-.214,4.392,4.392,0,0,1,.856-.513,13.989,13.989,0,0,1,3.32-1.155,37.737,37.737,0,0,1,11.526-.685c2.242.163,4.4.274,6.341.548a47.3,47.3,0,0,1,5.134,1.078,19.385,19.385,0,0,1,1.908.616,3.3,3.3,0,0,1,1.326.779,1.309,1.309,0,0,1,.377.856.514.514,0,0,1-.077.334,1.369,1.369,0,0,0-.419-1.112,3.149,3.149,0,0,0-1.292-.659c-.548-.188-1.189-.377-1.9-.556-1.42-.334-3.158-.7-5.074-.967s-4.065-.351-6.315-.513a40.6,40.6,0,0,0-11.424.548,16.261,16.261,0,0,0-3.312,1C559.255,149.578,558.9,149.86,558.87,149.809Z" transform="translate(-519.533 -131.146)" fill="#263238"/>
        <path id="Path_102947" data-name="Path 102947" d="M572.56,143.328a3.687,3.687,0,0,1,.531,0h1.455c1.224,0,2.918.12,4.783.274.924.077,1.814.163,2.618.257a11.4,11.4,0,0,1,2.131.351,2.071,2.071,0,0,1,1.164.856.95.95,0,0,1,.163.5,2.287,2.287,0,0,0-.223-.471,2.139,2.139,0,0,0-1.138-.8A12.836,12.836,0,0,0,581.93,144l-2.619-.24c-1.865-.154-3.551-.257-4.775-.325l-1.446-.077A2.225,2.225,0,0,1,572.56,143.328Z" transform="translate(-521.508 -130.604)" fill="#fafafa"/>
        <path id="Path_102948" data-name="Path 102948" d="M579.066,139.958a2.16,2.16,0,0,1-.068-.377c0-.24-.077-.6-.128-1.035-.086-.856-.18-2.079-.222-3.423s0-2.567,0-3.423a4.956,4.956,0,0,1,.06-1.035,1.614,1.614,0,0,1,.051-.385,1.951,1.951,0,0,1,0,.385v4.458c0,1.335.111,2.567.171,3.423l.068,1.035A1.121,1.121,0,0,1,579.066,139.958Z" transform="translate(-522.384 -128.723)" fill="#fafafa"/>
        <path id="Path_102949" data-name="Path 102949" d="M589,147.14a1.4,1.4,0,0,1,.351.111l.916.359,3,1.241a11.008,11.008,0,0,1,1.626.77,2.088,2.088,0,0,1,.941,1.138,1.412,1.412,0,0,1,0,.993.651.651,0,0,1-.223.291,1.307,1.307,0,0,0,.154-.317,1.4,1.4,0,0,0,0-.933,1.96,1.96,0,0,0-.907-1.035,12.839,12.839,0,0,0-1.609-.744l-2.987-1.292-.856-.411a2.138,2.138,0,0,1-.411-.171Z" transform="translate(-523.88 -131.155)" fill="#fafafa"/>
        <path id="Path_102950" data-name="Path 102950" d="M574.05,128.832a8.326,8.326,0,0,1,1.053-.043h2.567a17.966,17.966,0,0,1,2.567.128,1.318,1.318,0,0,1,.693.377.5.5,0,0,1,.137.257,1.215,1.215,0,0,0-.856-.5c-.616-.111-1.532-.043-2.567-.086s-1.883-.043-2.567-.068a5.569,5.569,0,0,1-1.027-.06Z" transform="translate(-521.723 -128.507)" fill="#fafafa"/>
        <path id="Path_102951" data-name="Path 102951" d="M561.643,151.259a17.037,17.037,0,0,0,.727,10.183,36.1,36.1,0,0,1,.582-6.307,8.4,8.4,0,0,1,.967-2.909,4.688,4.688,0,0,1,2.884-1.292c1.053-.231,2.216-.394,2.567-1.4a30.292,30.292,0,0,0-7.77,1.711" transform="translate(-519.867 -131.5)" fill="#263238"/>
        <path id="Path_102952" data-name="Path 102952" d="M570.549,183.307a4.775,4.775,0,0,0-3.081,1.369,14.52,14.52,0,0,1-2.079,2.713c-.907.7-2.011.856-2.781,1.609-1.523,1.463-.779,4.03-1.438,5.99a14.79,14.79,0,0,1-1.908,3.158,3.91,3.91,0,0,0-.659,3.491,3.038,3.038,0,0,0,2.379,1.711,6.529,6.529,0,0,0,2.995-.411l-.12-2.379a3.423,3.423,0,0,0,.556,1.284,1.172,1.172,0,0,0,1.258.419c.685-.274.7-1.224.633-1.96-.265-2.721-.137-5.656,1.412-7.907.727-1.07,1.968-2.2,2.567-3.329l.24-5.776" transform="translate(-519.472 -136.371)" fill="#263238"/>
        <path id="Path_102953" data-name="Path 102953" d="M521.086,232.69s1.532-3.337,3.765-3.2,8.5.856,8.5.856l.693,3.063-13.691-.7" transform="translate(-513.975 -143.037)" fill="#ffbe9d"/>
        <path id="Path_102954" data-name="Path 102954" d="M528.81,231.1l3.825-11.852a1.48,1.48,0,0,1,1.412-1.027h0a1.489,1.489,0,0,1,1.438,1.891l-3.312,11.655Z" transform="translate(-515.196 -141.411)" fill="#6abd90"/>
        <path id="Path_102955" data-name="Path 102955" d="M512.9,233.26h37.172l24.653,33.5-34.768-.5Z" transform="translate(-512.9 -143.581)" fill="#263238"/>
        <path id="Path_102956" data-name="Path 102956" d="M564.794,247.517a29.5,29.5,0,0,1,4.98-.154c1.942.2,9.259,1.857,9.259,1.857l3.132,9.712-3.628-.325-2.439,1.181c-3.893.513-8.369,1.035-9.225.856,0,0-1.463-.856-1.027-1.66,0,0-3.32-.385-2.978-3.029a2.756,2.756,0,0,1-2.156-2.387l-6.084-.334a1.215,1.215,0,0,1-1.138-1.1h0c-.06-.685.856-.924,1.549-.95l9.49-.411a1.395,1.395,0,0,0,1.044-2.242Z" transform="translate(-518.756 -145.61)" fill="#ffbe9d"/>
        <g id="Group_297849" data-name="Group 297849" transform="translate(48.425 119.338)" opacity="0.5">
          <path id="Path_102957" data-name="Path 102957" d="M569.875,273.961l28.264-6.041,3.158,10.457-31.807,3.508Z" transform="translate(-569.49 -267.92)" fill="#fff"/>
        </g>
        <g id="Group_297850" data-name="Group 297850" transform="translate(24.319 118.439)" opacity="0.5">
          <path id="Path_102958" data-name="Path 102958" d="M564.656,273.63l-19-6.76-4.339,10.286,22.856,4.227Z" transform="translate(-541.32 -266.87)" fill="#fff"/>
        </g>
        <path id="Path_102959" data-name="Path 102959" d="M596.21,166.35a1.566,1.566,0,0,1,.077,1.284A3.611,3.611,0,0,1,594.276,170a3.705,3.705,0,0,1-3.081-.351,1.942,1.942,0,0,1-.856-.967,4.487,4.487,0,0,0,1.01.693,3.782,3.782,0,0,0,2.764.214,3.611,3.611,0,0,0,1.865-2.045A7.123,7.123,0,0,0,596.21,166.35Z" transform="translate(-524.074 -133.927)" fill="#455a64"/>
        <path id="Path_102960" data-name="Path 102960" d="M596.028,165.605a2.8,2.8,0,0,1-.933,1.189,3.629,3.629,0,0,1-1.472.779,2.849,2.849,0,0,1-2.062-.223,3.534,3.534,0,0,1-1.429-1.48,4.842,4.842,0,0,1-.5-1.583,3.423,3.423,0,0,1,0-1.5,9.713,9.713,0,0,1,.308,1.438,4,4,0,0,0,1.814,2.73,2.567,2.567,0,0,0,1.763.214,3.594,3.594,0,0,0,1.378-.625C595.617,166.025,595.968,165.537,596.028,165.605Z" transform="translate(-523.96 -133.413)" fill="#455a64"/>
        <path id="Path_102961" data-name="Path 102961" d="M600.746,224.722a1.925,1.925,0,0,1-.24-.257,6.372,6.372,0,0,1-.6-.856,23.765,23.765,0,0,1-1.874-3.192,27.272,27.272,0,0,1-.231-23.695,23.722,23.722,0,0,1,1.814-3.235,9.834,9.834,0,0,1,.582-.813c.137-.188.222-.274.231-.265a11.226,11.226,0,0,1-.667,1.172,29.948,29.948,0,0,0-1.669,3.269,28.761,28.761,0,0,0,1.96,26.664,11.878,11.878,0,0,1,.693,1.207Z" transform="translate(-524.776 -137.687)" fill="#263238"/>
        <path id="Path_102962" data-name="Path 102962" d="M573.75,217.519a7.138,7.138,0,0,1,1.01-.856,34.542,34.542,0,0,0,2.67-2.353,42.365,42.365,0,0,0,7.051-9.353,92,92,0,0,0,5.032-10.645c.556-1.335,1.018-2.447,1.369-3.3a7.206,7.206,0,0,1,.548-1.189,7.005,7.005,0,0,1-.385,1.249c-.282.8-.693,1.951-1.241,3.363a79.307,79.307,0,0,1-4.929,10.748,39.288,39.288,0,0,1-7.222,9.353,25.31,25.31,0,0,1-2.79,2.268c-.342.257-.625.419-.813.539a1.105,1.105,0,0,1-.3.18Z" transform="translate(-521.68 -137.313)" fill="#263238"/>
        <path id="Path_102963" data-name="Path 102963" d="M565.4,190.56c.086,0-.394,1.463-.736,3.876a28.329,28.329,0,0,0-.265,4.279,31.025,31.025,0,0,0,.565,5.186,31.555,31.555,0,0,0,1.5,5,28.233,28.233,0,0,0,1.9,3.816c1.249,2.088,2.251,3.235,2.182,3.286a4.513,4.513,0,0,1-.736-.779,10.279,10.279,0,0,1-.77-.975c-.291-.4-.633-.856-.95-1.369a25.674,25.674,0,0,1-2-3.825A26.812,26.812,0,0,1,564,198.7a25.1,25.1,0,0,1,.359-4.279c.077-.608.231-1.147.334-1.626a11.627,11.627,0,0,1,.334-1.207,4.418,4.418,0,0,1,.376-1.027Z" transform="translate(-520.273 -137.42)" fill="#263238"/>
        <path id="Path_102964" data-name="Path 102964" d="M560.867,188.8c.12,0-1.284,6.777-3.132,15.086s-3.423,15.018-3.577,14.992,1.284-6.786,3.141-15.095S560.747,188.774,560.867,188.8Z" transform="translate(-518.851 -137.166)" fill="#263238"/>
      </g>
      <g id="Group_297983" data-name="Group 297983" transform="translate(-1950.07 292.014)">
        <g id="Group_171574" data-name="Group 171574">
          <path id="Path_87211" data-name="Path 87211" d="M131.949,258.993a14.106,14.106,0,0,1-2.518-7.223,23.089,23.089,0,0,1,.674-7.8,36.2,36.2,0,0,1,7.117-13.7,62.507,62.507,0,0,1,5.189-5.574c.961-.815,1.907-1.644,2.885-2.434a30.471,30.471,0,0,1,2.98-2.289,72.006,72.006,0,0,1,6.356-3.946c2.247-1.1,4.472-2.205,6.817-3.076-1.637,1.938-3.395,3.641-5.13,5.351s-3.372,3.487-5.108,5.129c-1.711,1.67-3.251,3.475-4.929,5.132-.8.86-1.534,1.77-2.3,2.649a31.633,31.633,0,0,0-2.254,2.661A53.287,53.287,0,0,0,134.39,245.4a30.142,30.142,0,0,0-2.145,6.481A19.665,19.665,0,0,0,131.949,258.993Z" transform="translate(-63.381 -191.658)" fill="#6fcb84"/>
          <path id="Path_87212" data-name="Path 87212" d="M119.347,251.164a19.05,19.05,0,0,0,1.132-6.434,19.587,19.587,0,0,0-.232-3.034,22.286,22.286,0,0,0-.806-2.845,26.88,26.88,0,0,0-6.916-9.649c-.73-.727-1.6-1.351-2.384-2.039a23.309,23.309,0,0,0-2.465-2c-1.775-1.207-3.386-2.651-5.274-3.78q-1.373-.9-2.732-1.855c-.9-.65-1.812-1.3-2.771-1.869-1.873-1.238-3.768-2.465-5.6-3.95a63.405,63.405,0,0,1,6.777,1.377,22.674,22.674,0,0,1,3.291,1.054q1.62.611,3.228,1.276l1.607.673c.525.251,1.026.557,1.541.832,1.028.56,2.035,1.162,3.053,1.751a22.934,22.934,0,0,1,2.908,2.048c.924.761,1.9,1.446,2.774,2.283a23.5,23.5,0,0,1,7.346,12.763,8.073,8.073,0,0,1,.18,1.9c.01.64.061,1.269.01,1.9a16.283,16.283,0,0,1-.77,3.665A13.15,13.15,0,0,1,119.347,251.164Z" transform="translate(-91.302 -191.094)" fill="#6fcb84"/>
          <path id="Path_87213" data-name="Path 87213" d="M118.095,255.33a39.752,39.752,0,0,0,.328-13.969,37.132,37.132,0,0,0-4.385-12.456l-1.727-2.863c-.64-.921-1.363-1.791-2.022-2.71l-1-1.38-1.158-1.271c-.772-.848-1.528-1.722-2.282-2.608-1.63-1.652-3.338-3.275-5-5.011-1.782-1.59-3.594-3.182-5.318-5.028a71.419,71.419,0,0,1,6.937,2.706,70.861,70.861,0,0,1,6.387,3.937c.976.8,1.951,1.611,2.909,2.446l1.437,1.257,1.278,1.439c.843.971,1.692,1.938,2.493,2.951l2.082,3.3a29.566,29.566,0,0,1,3.875,15.027A23.531,23.531,0,0,1,118.095,255.33Z" transform="translate(-88.195 -195.26)" fill="#6fcb84"/>
          <path id="Path_87214" data-name="Path 87214" d="M136.7,263.3a67.7,67.7,0,0,1-8.726-14.068,91.253,91.253,0,0,1-5.7-15.575,77.425,77.425,0,0,1-2.4-16.515,46.91,46.91,0,0,1,2.519-16.473c.479,5.555,1.089,10.8,2,16.031,1,5.217,2.169,10.36,3.468,15.507,1.361,5.13,2.823,10.252,4.34,15.405C133.69,252.774,135.266,257.935,136.7,263.3Z" transform="translate(-70.342 -200.667)" fill="#6fcb84"/>
          <path id="Path_87215" data-name="Path 87215" d="M139.793,262.317a78.344,78.344,0,0,1-10.986-13.139,106.267,106.267,0,0,1-8.445-14.9,89.3,89.3,0,0,1-5.67-16.258,52.467,52.467,0,0,1-1.24-17.184c1.742,5.5,3.546,10.691,5.571,15.837,2.067,5.125,4.3,10.157,6.578,15.2,2.316,5.021,4.721,10.018,7.123,15.06S137.543,257.029,139.793,262.317Z" transform="translate(-75.24 -200.546)" fill="#6fcb84"/>
          <path id="Path_87216" data-name="Path 87216" d="M149.28,262.976a78.356,78.356,0,0,1-13.643-10.354,106.279,106.279,0,0,1-11.559-12.641,89.3,89.3,0,0,1-9.156-14.583,52.412,52.412,0,0,1-5.047-16.471c2.927,4.967,5.845,9.628,8.967,14.191,3.157,4.536,6.462,8.941,9.8,13.344,3.379,4.378,6.84,8.711,10.306,13.089S145.9,258.324,149.28,262.976Z" transform="translate(-77.673 -194.606)" fill="#6fcb84"/>
          <path id="Path_87217" data-name="Path 87217" d="M141.726,256.73a59.909,59.909,0,0,1-13.109-8.879,80.749,80.749,0,0,1-10.857-11.57,68.689,68.689,0,0,1-8.166-13.7,45.987,45.987,0,0,1-3.88-15.434c2.654,4.633,5.073,9.056,7.877,13.29,2.811,4.213,5.671,8.341,8.756,12.348s6.247,7.964,9.5,11.908C135.1,248.657,138.422,252.576,141.726,256.73Z" transform="translate(-80.727 -195.913)" fill="#6fcb84"/>
          <path id="Path_87218" data-name="Path 87218" d="M134.5,257.8c-3.9-2.5-6.361-7.105-7.143-11.9a24.977,24.977,0,0,1,2.259-14.155l.725-1.635.886-1.526,1.857-2.987q1.064-1.381,2.185-2.7a26,26,0,0,1,2.3-2.568,59.394,59.394,0,0,1,5.175-4.468,61.366,61.366,0,0,1,5.791-3.594,66.749,66.749,0,0,1-3.768,5.576c-1.28,1.788-2.422,3.643-3.695,5.365-1.191,1.781-2.244,3.615-3.4,5.363l-1.451,2.75-.752,1.352-.583,1.41a30.3,30.3,0,0,0-3.022,11.532A25.125,25.125,0,0,0,134.5,257.8Z" transform="translate(-65.028 -192.158)" fill="#6fcb84"/>
          <path id="Path_87219" data-name="Path 87219" d="M133.11,255.287a27.738,27.738,0,0,1-7.345-12.343,27.405,27.405,0,0,1-.213-14.923,25.458,25.458,0,0,1,3.045-6.967,27.192,27.192,0,0,1,4.744-5.762,31.245,31.245,0,0,1,12.438-7.145,93.8,93.8,0,0,0-9.057,10.169,35.966,35.966,0,0,0-3.364,5.43,28.142,28.142,0,0,0-2.244,5.793,34.013,34.013,0,0,0-.917,12.518A64.421,64.421,0,0,0,133.11,255.287Z" transform="translate(-66.853 -195.177)" fill="#6fcb84"/>
          <path id="Path_87220" data-name="Path 87220" d="M136.107,243.991l-27.124-26.042,1.089,25.537Z" transform="translate(-78.327 -187.985)" fill="#6fcb84"/>
        </g>
        <g id="Group_171575" data-name="Group 171575" transform="translate(15.355 53.24)">
          <path id="Path_87221" data-name="Path 87221" d="M172.237,231.374H100.158l9.439,53.548h53.2Z" transform="translate(-100.158 -231.374)" fill="#255d7a"/>
          <path id="Path_87222" data-name="Path 87222" d="M127.207,231.374H100.158l9.439,53.548H123.8Z" transform="translate(-100.158 -231.374)" fill="#255d7a"/>
        </g>
      </g>
    </g>
  </g>
</svg>
