<svg xmlns="http://www.w3.org/2000/svg" width="570" height="370.568" viewBox="0 0 570 370.568">
  <g id="Occucare_Spain_1" transform="translate(-214 -1099)">
    <g id="Group_292790" data-name="Group 292790" transform="translate(237.303 1043.461)">
      <g id="Group_292737" data-name="Group 292737" transform="translate(16.584 55.539)">
        <path id="Path_99059" data-name="Path 99059" d="M113.9,425.947A146.059,146.059,0,0,1,43.364,372.23c-24.79-35.539-31.6-86.02-7.647-122.126,31.673-47.739,101.1-54.131,140.852-95.383,11.568-12,20.155-26.531,30.844-39.324C246.261,68.9,311.545,49.243,371.6,57.3c38.476,5.16,76.936,21.853,100.48,52.72,9.975,13.079,16.958,28.23,22.209,43.818,17.136,50.876,15.851,108.036-5.12,157.455s-61.772,90.422-111.72,110.1" transform="translate(-15.828 -55.539)" fill="#e1ecf2" opacity="0.61"/>
      </g>
      <g id="Group_292789" data-name="Group 292789" transform="translate(6.697 90.102)">
        <g id="Group_292746" data-name="Group 292746" transform="translate(0 84.416)">
          <g id="Group_292738" data-name="Group 292738" transform="translate(300.409 73.91)">
            <path id="Path_99062" data-name="Path 99062" d="M291.956,361.422c11.551-28.236,31.792-59.136,54.7-78.7a177.67,177.67,0,0,1,78.664-39.033c18.657-3.867,37.572-4.448,56.381-5.017,1.428-.043,2.994-.038,4.028.925,1.383,1.288,1.179,3.64.782,5.627-3.048,15.248-11.208,29.2-20.61,41.644-34.825,46.1-89.483,75.4-143.81,77.1-7.615.238-22.915-.473-30.131-2.545" transform="translate(-291.882 -238.655)" fill="#aac1e1"/>
            <path id="Path_99063" data-name="Path 99063" d="M443.147,282.837a200.84,200.84,0,0,0-33.153,3.274q10.842-7.463,21.683-14.927c.809-.556.054-1.809-.753-1.255-13.771,9.469-27.511,18.989-41.328,28.378,8.587-12.316,17.03-24.761,26.171-36.649.6-.787-.44-1.777-1.048-.987-9.934,12.919-19.035,26.5-28.4,39.853-2.684,1.817-5.365,3.64-8.057,5.446q-9.335,6.262-18.756,12.376a.768.768,0,0,0-.506.329q-11.923,7.75-24.011,15.193a266.871,266.871,0,0,1,30.807-41.539.72.72,0,1,0-1.048-.987,271.44,271.44,0,0,0-32.409,44.127c-3.006,1.829-6.006,3.669-9.033,5.456-10.179,6.013-20.48,11.782-30.947,17.159-.853.438-.45,1.877.412,1.435,7.507-3.856,14.91-7.949,22.264-12.146,14.784-2.144,29.6-4.088,44.426-4.428q6.524-.15,13.027.077c.929.032.877-1.491-.045-1.521a273.8,273.8,0,0,0-44.448,2.544c-3.133.407-6.263.86-9.4,1.306q14.728-8.528,29.138-17.686,6.14-3.887,12.232-7.862a245.138,245.138,0,0,1,56.323-2.65c.919.064,1.262-1.443.331-1.508a245.2,245.2,0,0,0-44.431.94c-3.058.344-6.112.768-9.162,1.226q12.024-7.862,23.926-15.944a.652.652,0,0,0,.253-.171q7.557-5.119,15.088-10.283,2.35-1.612,4.695-3.233a197.532,197.532,0,0,1,36.2-3.82C444.128,284.341,444.079,282.82,443.147,282.837Z" transform="translate(-291.886 -237.496)" fill="#507db9"/>
          </g>
          <g id="Group_292740" data-name="Group 292740" transform="translate(269.146 173.141)">
            <g id="Group_292739" data-name="Group 292739" transform="translate(0 7.693)">
              <path id="Path_99064" data-name="Path 99064" d="M262.848,340.239a267.343,267.343,0,0,0,25.393,14.983,209.823,209.823,0,0,0,27.014,11.669,170.9,170.9,0,0,0,26.768,7,149.541,149.541,0,0,0,26.362,2.28,130.073,130.073,0,0,0,26.237-2.724q1.582-.333,3.155-.71c.585-.139.883.754.292.894a129.356,129.356,0,0,1-26.194,3.42,148.212,148.212,0,0,1-26.435-1.651A168.169,168.169,0,0,1,318.589,369a204.483,204.483,0,0,1-27.233-11.151,257.96,257.96,0,0,1-25.9-14.782q-1.517-.981-3.023-1.98c-.5-.331-.088-1.179.415-.845Z" transform="translate(-262.206 -340.162)" fill="#7cd9a6"/>
            </g>
            <path id="Path_99065" data-name="Path 99065" d="M309.33,364.688c2.1,15.121,7.469,30.618,19.118,40.487.42.357,1.008.722,1.48.436a1.343,1.343,0,0,0,.49-.921,32.911,32.911,0,0,0-1.345-19.4c-3.558-8.7-12.154-15.054-19.742-20.6" transform="translate(-259.691 -331.16)" fill="#7cd9a6"/>
            <path id="Path_99066" data-name="Path 99066" d="M320.426,369.972c8.819,1.5,22.048-.443,29.884-4.758a40.374,40.374,0,0,0,16.615-17.432,1.2,1.2,0,0,0-1.309-1.705A104.3,104.3,0,0,0,341.3,353.73c-8.383,4.019-14.87,8.133-20.054,15.849" transform="translate(-259.099 -332.155)" fill="#7cd9a6"/>
            <path id="Path_99067" data-name="Path 99067" d="M283.733,354.062c6.909,2.031,16.834,1.977,22.382-.4a20.1,20.1,0,0,0,10.9-11.169c.242-.613-.458-1.446-1.181-1.4a67.114,67.114,0,0,0-17.811,3.125c-6,2.1-10.534,4.466-13.7,9.638" transform="translate(-261.058 -332.42)" fill="#7cd9a6"/>
            <path id="Path_99068" data-name="Path 99068" d="M331.453,371.045a78.771,78.771,0,0,0,17.352,32.386c.6.669,1.462,1.391,2.286,1.036a2.067,2.067,0,0,0,.956-1.272c2.3-6.127.266-13.221-3.657-18.458s-9.5-8.963-15.039-12.44" transform="translate(-258.511 -330.821)" fill="#7cd9a6"/>
            <path id="Path_99069" data-name="Path 99069" d="M287.891,355.434a78.757,78.757,0,0,0,17.351,32.386c.6.67,1.462,1.393,2.286,1.037a2.064,2.064,0,0,0,.956-1.272c2.3-6.126.266-13.22-3.657-18.458s-9.494-8.962-15.039-12.439" transform="translate(-260.836 -331.654)" fill="#7cd9a6"/>
            <path id="Path_99070" data-name="Path 99070" d="M346.851,375.161c3,.885,6.213-.1,9.116-1.265,10.591-4.25,20.409-11.355,25.857-21.383.56-1.03.978-2.525.019-3.2a2.509,2.509,0,0,0-2.253.048,64.326,64.326,0,0,0-32.254,25.779" transform="translate(-257.689 -331.994)" fill="#7cd9a6"/>
            <path id="Path_99071" data-name="Path 99071" d="M351.6,374.806a219.224,219.224,0,0,0,21.529,29.547c1.09,1.261,2.742,2.629,4.223,1.863a3.252,3.252,0,0,0,1.264-1.445c2.009-3.787,1.6-8.526-.245-12.393s-4.984-6.974-8.345-9.634c-5.382-4.261-11.138-6.19-17.644-8.377" transform="translate(-257.435 -330.644)" fill="#7cd9a6"/>
            <path id="Path_99072" data-name="Path 99072" d="M369.168,375.3c8.193,6.158,19.7,5.6,29.482,2.551,6.532-2.035,12.921-5.169,17.478-10.271A6.606,6.606,0,0,0,417.9,364.5a5,5,0,0,0-2.662-4.922,12.094,12.094,0,0,0-5.766-1.257c-14.9-.41-27.873,8.746-40.306,16.976" transform="translate(-256.498 -331.501)" fill="#7cd9a6"/>
            <path id="Path_99073" data-name="Path 99073" d="M303.364,364.565c9.889,2.7,20.372-2.073,28.338-8.523,5.317-4.3,10.1-9.577,12.444-16a6.6,6.6,0,0,0,.513-3.515,4.993,4.993,0,0,0-4.292-3.589,12.08,12.08,0,0,0-5.822.963c-14,5.125-22.669,18.426-31.181,30.667" transform="translate(-260.01 -332.859)" fill="#7cd9a6"/>
          </g>
          <g id="Group_292741" data-name="Group 292741" transform="translate(8.382 156.237)">
            <path id="Path_99074" data-name="Path 99074" d="M236.793,380.647c-26.569,13.454-61.32,23.115-90.859,22.512a174.046,174.046,0,0,1-83.548-23.174c-16.39-9.534-30.885-21.7-45.292-33.807-1.094-.919-2.261-1.967-2.421-3.377-.215-1.887,1.434-3.513,2.992-4.736,11.966-9.39,26.924-14.4,41.856-17.463,55.3-11.33,114.739,3.137,156.389,38.063,5.839,4.9,16.813,15.622,20.884,21.983" transform="translate(-14.654 -316.811)" fill="#aac1e1"/>
            <path id="Path_99075" data-name="Path 99075" d="M71.66,337.249A203.276,203.276,0,0,0,98.5,356.886q-12.84-1.634-25.679-3.264a.73.73,0,0,0-.234,1.441c16.3,2.083,32.611,4.106,48.9,6.279-14.238,3.5-28.452,7.2-42.832,10.017-.952.186-.8,1.624.155,1.438,15.628-3.059,31.055-7.168,46.535-10.931,3.159.427,6.32.847,9.477,1.288q10.95,1.531,21.872,3.227a.741.741,0,0,0,.586.092q13.83,2.138,27.585,4.617a253.263,253.263,0,0,1-49.4,10.59.723.723,0,1,0,.156,1.438,257.614,257.614,0,0,0,52.244-11.461c3.407.633,6.816,1.254,10.212,1.93,11.422,2.277,22.78,4.82,34.014,7.766.915.24,1.528-1.107.6-1.349-8.056-2.113-16.185-3.981-24.344-5.736-12.4-8.246-24.7-16.659-35.991-26.284q-4.968-4.235-9.678-8.738c-.675-.643-1.6.532-.934,1.17a278.112,278.112,0,0,0,34.81,27.71c2.6,1.782,5.224,3.53,7.846,5.281q-16.415-3.424-33-6.165-7.055-1.18-14.131-2.261a249.072,249.072,0,0,1-43.744-35.542c-.646-.66-1.859.24-1.205.909a249.627,249.627,0,0,0,33.777,28.9c2.5,1.78,5.051,3.5,7.621,5.187q-13.977-2.122-28-4a.609.609,0,0,0-.3-.041q-8.9-1.2-17.8-2.35c-1.853-.239-3.708-.471-5.561-.708A199.8,199.8,0,0,1,72.593,336.08C71.884,335.469,70.953,336.641,71.66,337.249Z" transform="translate(-11.625 -316.15)" fill="#507db9"/>
          </g>
          <g id="Group_292743" data-name="Group 292743" transform="translate(17.961)">
            <g id="Group_292742" data-name="Group 292742" transform="translate(25.538 15.492)">
              <path id="Path_99076" data-name="Path 99076" d="M128.7,297.211a267.287,267.287,0,0,0-9.319-27.972A209.765,209.765,0,0,0,106.666,242.7a170.942,170.942,0,0,0-15.6-22.855,149.54,149.54,0,0,0-18.39-19.024,130.067,130.067,0,0,0-21.58-15.17q-1.413-.787-2.846-1.536c-.532-.278-.172-1.148.367-.867a129.394,129.394,0,0,1,22.006,14.617,148.174,148.174,0,0,1,18.857,18.6,168.136,168.136,0,0,1,16.049,22.457,204.578,204.578,0,0,1,13.223,26.289,258.137,258.137,0,0,1,9.834,28.153q.5,1.736.981,3.479c.159.576-.707.947-.868.364Z" transform="translate(-47.992 -183.197)" fill="#aac1e1"/>
            </g>
            <path id="Path_99077" data-name="Path 99077" d="M105.72,244.7c8.342-12.786,14.465-28,12.157-43.091-.083-.546-.288-1.206-.831-1.3a1.347,1.347,0,0,0-.973.373A32.912,32.912,0,0,0,104.354,216.2c-3.028,8.9-.714,19.335,1.366,28.5" transform="translate(-19.523 -166.792)" fill="#aac1e1"/>
            <path id="Path_99078" data-name="Path 99078" d="M102.432,232.954c-5.671-6.919-16.923-14.139-25.667-16.029a40.391,40.391,0,0,0-23.977,2.243,1.2,1.2,0,0,0-.132,2.147A104.292,104.292,0,0,0,76.019,231.5c8.962,2.472,16.557,3.627,25.533,1.209" transform="translate(-22.237 -165.952)" fill="#aac1e1"/>
            <path id="Path_99079" data-name="Path 99079" d="M119.158,268.547c-3.879-6.067-11.4-12.542-17.145-14.392a20.1,20.1,0,0,0-15.553,1.271,1.179,1.179,0,0,0-.028,1.832,67.035,67.035,0,0,0,15.488,9.335c5.9,2.354,10.878,3.546,16.659,1.72" transform="translate(-20.425 -163.971)" fill="#aac1e1"/>
            <path id="Path_99080" data-name="Path 99080" d="M93.257,225.067a78.771,78.771,0,0,0,8.171-35.821c-.012-.9-.19-2.01-1.044-2.283a2.063,2.063,0,0,0-1.557.332c-5.758,3.112-8.88,9.8-9.359,16.325s1.279,12.993,3.179,19.257" transform="translate(-20.244 -167.507)" fill="#aac1e1"/>
            <path id="Path_99081" data-name="Path 99081" d="M115.871,265.44a78.754,78.754,0,0,0,8.171-35.821c-.012-.9-.19-2.01-1.044-2.283a2.068,2.068,0,0,0-1.557.332c-5.758,3.112-8.88,9.8-9.358,16.325s1.279,12.994,3.178,19.257" transform="translate(-19.037 -165.352)" fill="#aac1e1"/>
            <path id="Path_99082" data-name="Path 99082" d="M85.478,211.343c-1.682-2.637-4.752-4-7.706-5.029-10.78-3.746-22.851-4.832-33.544-.845-1.1.41-2.4,1.264-2.115,2.4.188.759,1,1.158,1.732,1.442A64.322,64.322,0,0,0,85.1,211.042" transform="translate(-22.769 -166.651)" fill="#aac1e1"/>
            <path id="Path_99083" data-name="Path 99083" d="M80.793,209.147a219.259,219.259,0,0,0,3.156-36.421c.005-1.667-.342-3.785-1.961-4.179a3.256,3.256,0,0,0-1.9.26c-4,1.539-6.807,5.379-7.95,9.51s-.818,8.533-.029,12.746c1.263,6.747,4.339,11.981,7.81,17.9" transform="translate(-21.205 -168.49)" fill="#aac1e1"/>
            <path id="Path_99084" data-name="Path 99084" d="M69.137,197.094C67,187.071,57.955,179.938,48.572,175.815c-6.263-2.751-13.14-4.582-19.927-3.724a6.6,6.6,0,0,0-3.359,1.156,4.994,4.994,0,0,0-1.223,5.46,12.08,12.08,0,0,0,3.526,4.734c10.973,10.093,26.767,11.7,41.548,13.653" transform="translate(-23.748 -168.309)" fill="#aac1e1"/>
            <path id="Path_99085" data-name="Path 99085" d="M111.478,248.292c-5.69-8.525-16.729-11.809-26.972-12.174-6.836-.243-13.9.6-19.893,3.9a6.606,6.606,0,0,0-2.695,2.315,4.994,4.994,0,0,0,.882,5.525,12.088,12.088,0,0,0,5.025,3.1c13.927,5.325,29.2.982,43.653-2.665" transform="translate(-21.737 -164.883)" fill="#aac1e1"/>
          </g>
          <g id="Group_292745" data-name="Group 292745" transform="translate(0 71.308)">
            <g id="Group_292744" data-name="Group 292744" transform="translate(26.855 26.202)">
              <path id="Path_99086" data-name="Path 99086" d="M146.311,341.593a266.893,266.893,0,0,0-18.155-23.231,209.727,209.727,0,0,0-20.876-20.74,170.959,170.959,0,0,0-22.353-16.306,149.692,149.692,0,0,0-23.7-11.761A129.984,129.984,0,0,0,35.809,262.5q-1.6-.269-3.2-.493c-.6-.084-.547-1.025.055-.94a129.356,129.356,0,0,1,25.631,6.4,148.129,148.129,0,0,1,24,11.2,168.157,168.157,0,0,1,22.647,15.778,204.5,204.5,0,0,1,21.269,20.337,258.209,258.209,0,0,1,18.7,23.23q1.054,1.468,2.089,2.948c.343.49-.349,1.129-.7.635Z" transform="translate(-32.191 -261.059)" fill="#7cd9a6"/>
            </g>
            <path id="Path_99087" data-name="Path 99087" d="M106.727,300.055c3.574-14.842,4.244-31.229-2.987-44.673-.262-.486-.676-1.041-1.22-.947a1.351,1.351,0,0,0-.792.677,32.92,32.92,0,0,0-5.841,18.546c.13,9.4,5.807,18.456,10.84,26.4" transform="translate(-1.937 -235.211)" fill="#7cd9a6"/>
            <path id="Path_99088" data-name="Path 99088" d="M99.964,290.238c-7.662-4.618-20.683-7.65-29.554-6.5a40.38,40.38,0,0,0-21.84,10.148,1.2,1.2,0,0,0,.6,2.068A104.337,104.337,0,0,0,74.59,297.72c9.273-.675,16.815-2.132,24.462-7.418" transform="translate(-4.483 -233.66)" fill="#7cd9a6"/>
            <path id="Path_99089" data-name="Path 99089" d="M127.67,318c-5.688-4.416-14.945-8-20.978-7.814A20.1,20.1,0,0,0,92.465,316.6a1.18,1.18,0,0,0,.588,1.735,67.012,67.012,0,0,0,17.72,3.6c6.35.24,11.439-.305,16.272-3.962" transform="translate(-2.13 -232.236)" fill="#7cd9a6"/>
            <path id="Path_99090" data-name="Path 99090" d="M88.5,285.677a78.754,78.754,0,0,0-4.306-36.488c-.312-.842-.852-1.831-1.749-1.8a2.068,2.068,0,0,0-1.356.834c-4.382,4.861-5.083,12.208-3.347,18.517s5.56,11.815,9.449,17.078" transform="translate(-2.952 -235.587)" fill="#7cd9a6"/>
            <path id="Path_99091" data-name="Path 99091" d="M123.339,316.136a78.77,78.77,0,0,0-4.307-36.488c-.311-.842-.852-1.83-1.749-1.8a2.07,2.07,0,0,0-1.356.835c-4.381,4.861-5.083,12.206-3.347,18.517s5.56,11.814,9.449,17.077" transform="translate(-1.093 -233.961)" fill="#7cd9a6"/>
            <path id="Path_99092" data-name="Path 99092" d="M76.741,275.615c-2.469-1.92-5.818-2.178-8.946-2.155-11.411.083-23.148,3.106-31.887,10.446-.9.754-1.833,1.993-1.187,2.973a2.512,2.512,0,0,0,2.114.778,64.317,64.317,0,0,0,39.448-12.2" transform="translate(-5.213 -234.195)" fill="#7cd9a6"/>
            <path id="Path_99093" data-name="Path 99093" d="M71.466,274.848a219.223,219.223,0,0,0-9.234-35.373c-.554-1.572-1.591-3.45-3.249-3.279a3.251,3.251,0,0,0-1.705.884c-3.254,2.789-4.611,7.348-4.3,11.624s2.088,8.313,4.243,12.019c3.452,5.933,8.1,9.833,13.359,14.249" transform="translate(-4.229 -236.185)" fill="#7cd9a6"/>
            <path id="Path_99094" data-name="Path 99094" d="M56.576,267.462c-5.373-8.727-16.284-12.416-26.507-13.156-6.823-.494-13.915.086-20.022,3.17a6.6,6.6,0,0,0-2.778,2.214,4.994,4.994,0,0,0,.678,5.554,12.08,12.08,0,0,0,4.907,3.278c13.722,5.833,29.141,2.053,43.722-1.061" transform="translate(-6.697 -235.226)" fill="#7cd9a6"/>
            <path id="Path_99095" data-name="Path 99095" d="M113.568,301.772c-8.217-6.124-19.719-5.52-29.491-2.43-6.522,2.063-12.9,5.223-17.434,10.344a6.6,6.6,0,0,0-1.763,3.084,5,5,0,0,0,2.683,4.91,12.081,12.081,0,0,0,5.771,1.234c14.905.35,27.836-8.861,40.235-17.142" transform="translate(-3.595 -232.935)" fill="#7cd9a6"/>
          </g>
        </g>
        <g id="Group_292747" data-name="Group 292747" transform="translate(354.61 0.24)">
          <circle id="Ellipse_10443" data-name="Ellipse 10443" cx="16.66" cy="16.66" r="16.66" transform="translate(0 23.56) rotate(-45)" fill="#7cd9a6"/>
          <path id="Path_99096" data-name="Path 99096" d="M381.268,108.631a9.828,9.828,0,0,1-1.967,1.48l-5.886-8.458q-.4-.577-.8-1.156a9.8,9.8,0,0,1,2.174-1.357c.351-.151.053-.666-.3-.516a11.1,11.1,0,0,0-2.454,1.579,16.168,16.168,0,0,0-2.254,2.223.293.293,0,0,0-.259.289,17.514,17.514,0,0,0-1.932,2.974,19.7,19.7,0,0,0-1.662,4.575c-.124.541-.219,1.088-.311,1.635-.454-.091-.909-.178-1.368-.242a23.311,23.311,0,0,0-2.526-.223c-.3-.009-.6.009-.9.014a.313.313,0,0,0-.121,0,18.087,18.087,0,0,0-4.331.584l-.027.006a15.452,15.452,0,0,0-2.119.721,9.7,9.7,0,0,0-2.936,1.808.3.3,0,0,0,.416.423,6.9,6.9,0,0,1,1.435-1.026l5.925,8.4.737,1.045a7.184,7.184,0,0,1-1.614,1.07c-.348.16-.049.675.3.516a9.01,9.01,0,0,0,2.235-1.61,14.626,14.626,0,0,0,1.839-2.1.282.282,0,0,0,.131-.173,18.166,18.166,0,0,0,2-3.571c.029-.068.052-.14.08-.21a.242.242,0,0,0,.06-.158A23.235,23.235,0,0,0,366.1,112.6c.14.026.28.051.42.079a20.5,20.5,0,0,0,5.055.38,17.845,17.845,0,0,0,4.373-.81.339.339,0,0,0,.159-.052,16.622,16.622,0,0,0,2.636-1.083,11.839,11.839,0,0,0,2.945-2.06C381.952,108.782,381.535,108.357,381.268,108.631Zm-9.428-7.489c.1-.09.209-.176.313-.264l5.921,8.508q.356.509.709,1.019a16.01,16.01,0,0,1-2.74,1.2q-2.605-3.956-5.213-7.911-.292-.446-.587-.89A16.087,16.087,0,0,1,371.84,101.142Zm.308,11.284h-.029l-3.665-5.23-.532-.758-.011-.011a17.038,17.038,0,0,1,1.946-3.133q2.533,3.844,5.067,7.689l.535.811A16.949,16.949,0,0,1,372.148,112.426Zm-11.533-.387q1.588,2.3,3.175,4.6l.383.554a17.581,17.581,0,0,1-1.8,3.334l-4.969-7.281-.5-.732A17.758,17.758,0,0,1,360.614,112.039Zm.232,10.386c-.193.2-.394.4-.6.594l-5.89-8.352-.694-.985c.11-.056.22-.114.331-.167a13.944,13.944,0,0,1,2.308-.844q2.545,3.727,5.089,7.457l.627.919A14.535,14.535,0,0,1,360.846,122.425Zm4.566-9.373a23.871,23.871,0,0,1-.68,2.645c-.088.276-.205.544-.307.817q-1.471-2.13-2.942-4.26l-.158-.229a25.334,25.334,0,0,1,4.186.466C365.478,112.678,365.449,112.866,365.413,113.052Zm.793-1.041a22.785,22.785,0,0,1,1.251-4.626c.048-.118.113-.229.163-.344l3.565,5.085.236.337a19.667,19.667,0,0,1-4.279-.269C366.828,112.139,366.518,112.074,366.206,112.012Z" transform="translate(-342.921 -88.044)" fill="#fff"/>
        </g>
        <g id="Group_292749" data-name="Group 292749" transform="translate(239.146 4.683)">
          <path id="Path_99097" data-name="Path 99097" d="M263.277,98.9a16.66,16.66,0,1,1-23.445-2.337A16.661,16.661,0,0,1,263.277,98.9Z" transform="translate(-233.726 -92.797)" fill="#7cd9a6"/>
          <g id="Group_292748" data-name="Group 292748" transform="translate(4.489 4.344)">
            <path id="Path_99098" data-name="Path 99098" d="M238.351,110.892a13.969,13.969,0,0,0,2.717.346,7.641,7.641,0,0,0,1.3-.041c.387-.06.472-.232.663-.572a53.929,53.929,0,0,1,2.9-4.612l-.973-.183a74.488,74.488,0,0,1,2.531,14.29.538.538,0,0,0,1.073.061,122.919,122.919,0,0,1,5.1-22.558l-1.046-.2.212,10.753c.018.866.006,1.738.054,2.6a1.2,1.2,0,0,0,.75,1.206,7.266,7.266,0,0,0,2.315.117l2.742.035c.69.009.754-1.064.06-1.072l-2.219-.029-1.176-.015a4.917,4.917,0,0,1-1.142-.018c-.17-.046-.175-.011-.253-.155a2.077,2.077,0,0,1-.018-.619q-.011-.532-.021-1.063-.024-1.195-.047-2.389l-.183-9.292a.54.54,0,0,0-1.046-.2,124.526,124.526,0,0,0-5.15,22.84l1.073.061a75.774,75.774,0,0,0-2.554-14.578.544.544,0,0,0-.973-.183,54.893,54.893,0,0,0-3.085,4.943l.478-.24a12.866,12.866,0,0,1-3.731-.25c-.67-.146-1.019.87-.344,1.019Z" transform="translate(-237.988 -96.921)" fill="#fff"/>
          </g>
        </g>
        <g id="Group_292750" data-name="Group 292750" transform="translate(293.281)">
          <circle id="Ellipse_10444" data-name="Ellipse 10444" cx="16.659" cy="16.659" r="16.659" transform="translate(0 23.56) rotate(-45)" fill="#7cd9a6"/>
          <path id="Path_99099" data-name="Path 99099" d="M301.716,98.63l3.238,6.727-.216.1,1.061,3.165.187-.09.165.342-.91.437a.388.388,0,0,0-.195.22.383.383,0,0,0,.016.294l4.282,8.9-.925.591.164.337.982-.472.836-.4,1.647,3.422-.718.651.262.545,1.848-.891,1.849-.887-.263-.546-.955.155-1.646-3.423.836-.4.983-.472-.164-.339-1.038.355-4.284-8.9a.372.372,0,0,0-.219-.195.378.378,0,0,0-.294.016l-.91.437-.164-.343.187-.09-1.812-2.8-.216.1-2.641-5.486Zm6.614,9.77,4.193,8.712-.354.17-2.02.973-.354.171-1.048-2.177.354-.17,1.531-.737-.178-.368-1.529.736-.354.171-.417-.866.354-.17,1.531-.736-.177-.37-1.531.737-.354.17-.417-.865,1.884-.908-.178-.369-1.883.908-.416-.867,1.883-.906-.178-.369-1.882.907-.418-.867,1.884-.907-.178-.368-1.883.907-.593-1.231.773-.371,1.184-.57Z" transform="translate(-284.233 -87.802)" fill="#fff"/>
        </g>
        <g id="Group_292788" data-name="Group 292788" transform="translate(82.222 12.105)">
          <g id="Group_292751" data-name="Group 292751" transform="translate(127.912 240.923)">
            <rect id="Rectangle_151659" data-name="Rectangle 151659" width="84.565" height="73.824" fill="#376cb2"/>
            <path id="Path_99100" data-name="Path 99100" d="M290.749,342.965l-84.565-1.416V378.3l84.565-17.669Z" transform="translate(-206.184 -327.866)" fill="#507db9"/>
          </g>
          <g id="Group_292753" data-name="Group 292753" transform="translate(0 36.948)">
            <g id="Group_292752" data-name="Group 292752">
              <path id="Path_99101" data-name="Path 99101" d="M429.732,140.886a21.724,21.724,0,0,0-14.964-5.967H106.125a21.372,21.372,0,0,0-21.372,21.372V331.537C319.606,334.952,404.725,197.376,429.732,140.886Z" transform="translate(-84.753 -134.919)" fill="#6aa3ef"/>
              <path id="Path_99102" data-name="Path 99102" d="M429.732,140.584C404.725,197.074,319.606,334.65,84.753,331.235V353.88H436.591V156.44A21.736,21.736,0,0,0,429.732,140.584Z" transform="translate(-84.753 -134.617)" fill="#6aa3ef"/>
            </g>
            <path id="Rectangle_151660" data-name="Rectangle 151660" d="M15.35,0H314.835a16.35,16.35,0,0,1,16.35,16.35V192.2a0,0,0,0,1,0,0H0a0,0,0,0,1,0,0V15.35A15.35,15.35,0,0,1,15.35,0Z" transform="translate(9.065 8.296)" fill="#376cb2"/>
            <path id="Path_99103" data-name="Path 99103" d="M254.981,334.446a7.35,7.35,0,1,1-7.349-7.349A7.349,7.349,0,0,1,254.981,334.446Z" transform="translate(-76.452 -124.662)" fill="#376cb2"/>
          </g>
          <rect id="Rectangle_151661" data-name="Rectangle 151661" width="173.626" height="9.424" rx="4.218" transform="translate(79.055 312.653)" fill="#507db9"/>
          <g id="Group_292787" data-name="Group 292787" transform="translate(18.314)">
            <g id="Group_292758" data-name="Group 292758" transform="translate(183.225 185.497)">
              <g id="Group_292754" data-name="Group 292754" transform="translate(81.068)">
                <circle id="Ellipse_10445" data-name="Ellipse 10445" cx="16.66" cy="16.66" r="16.66" transform="translate(0 23.56) rotate(-45)" fill="#7cd9a6"/>
                <path id="Path_99104" data-name="Path 99104" d="M369.67,285.363a9.72,9.72,0,0,1,1.891,1.576l-6.883,7.666-.942,1.048a9.806,9.806,0,0,1-1.818-1.805c-.228-.307-.66.1-.434.407a11.06,11.06,0,0,0,2.1,2.028,16.252,16.252,0,0,0,2.68,1.685.3.3,0,0,0,.341.185,17.592,17.592,0,0,0,3.337,1.2,19.66,19.66,0,0,0,4.834.569c.555,0,1.108-.036,1.662-.072.016.463.035.926.077,1.388a23.705,23.705,0,0,0,.361,2.509c.06.295.148.585.221.877a.324.324,0,0,0,.029.118,18.088,18.088,0,0,0,1.561,4.082l.013.025a15.245,15.245,0,0,0,1.186,1.9,9.715,9.715,0,0,0,2.432,2.444.3.3,0,0,0,.317-.5,6.874,6.874,0,0,1-1.327-1.161l6.82-7.692.848-.958a7.2,7.2,0,0,1,1.411,1.325c.235.3.668-.105.435-.406a9.045,9.045,0,0,0-2.079-1.808,14.655,14.655,0,0,0-2.461-1.309.279.279,0,0,0-.2-.087,18.167,18.167,0,0,0-3.933-1.128c-.074-.012-.148-.018-.223-.029a.243.243,0,0,0-.167-.023,23.235,23.235,0,0,0-4.748-.192c-.006-.143-.015-.284-.02-.428a20.519,20.519,0,0,0-.788-5.008,17.827,17.827,0,0,0-1.79-4.07.338.338,0,0,0-.086-.143,16.689,16.689,0,0,0-1.658-2.317,11.853,11.853,0,0,0-2.681-2.4C369.661,284.662,369.342,285.166,369.67,285.363Zm-5.13,10.893c-.11-.078-.219-.163-.33-.243l6.926-7.714.829-.923a15.934,15.934,0,0,1,1.8,2.391l-6.506,6.887q-.367.387-.732.775A16.037,16.037,0,0,1,364.54,296.256Zm10.913-2.884.007.028-4.251,4.765-.616.691-.007.013a17.019,17.019,0,0,1-3.5-1.177L373.414,291l.667-.707A16.909,16.909,0,0,1,375.453,293.372Zm2.266,11.314,3.747-4.143.452-.5a17.609,17.609,0,0,1,3.657.988l-5.949,6.5-.6.653A17.766,17.766,0,0,1,377.719,304.686Zm10.057-2.6c.238.142.478.293.716.452l-6.78,7.647-.8.9c-.08-.095-.162-.189-.239-.283a14.012,14.012,0,0,1-1.35-2.054l6.093-6.662q.376-.411.751-.821A14.419,14.419,0,0,1,387.775,302.081Zm-10.169-2.3a23.613,23.613,0,0,1,2.73.056c.29.023.577.076.866.111l-3.473,3.841-.185.205a25.349,25.349,0,0,1-.507-4.181C377.227,299.806,377.416,299.791,377.606,299.784Zm-1.195-.535a22.715,22.715,0,0,1-4.791-.158c-.125-.02-.248-.057-.373-.08q2.067-2.316,4.134-4.634c.091-.1.182-.2.273-.308a19.578,19.578,0,0,1,.718,4.227C376.393,298.614,376.4,298.932,376.412,299.249Z" transform="translate(-352.594 -275.468)" fill="#fff"/>
              </g>
              <g id="Group_292756" data-name="Group 292756" transform="translate(0 3.697)">
                <circle id="Ellipse_10446" data-name="Ellipse 10446" cx="16.66" cy="16.66" r="16.66" transform="translate(0 32.44) rotate(-76.808)" fill="#7cd9a6"/>
                <g id="Group_292755" data-name="Group 292755" transform="translate(9.181 8.018)">
                  <path id="Path_99105" data-name="Path 99105" d="M285.186,301.844a13.961,13.961,0,0,0,2.731.192,7.606,7.606,0,0,0,1.295-.114c.383-.082.458-.258.629-.609a53.949,53.949,0,0,1,2.637-4.766l-.982-.129a74.459,74.459,0,0,1,3.333,14.125.538.538,0,0,0,1.074,0,122.91,122.91,0,0,1,3.816-22.809l-1.055-.143q.408,5.361.817,10.723c.066.864.1,1.735.2,2.6a1.207,1.207,0,0,0,.817,1.163,7.253,7.253,0,0,0,2.317-.015l2.741-.119c.689-.029.692-1.105,0-1.074l-2.218.1-1.175.052a4.9,4.9,0,0,1-1.141.046c-.173-.037-.176,0-.261-.141a2.082,2.082,0,0,1-.054-.617c-.026-.353-.054-.706-.08-1.059l-.182-2.383q-.354-4.634-.707-9.268a.54.54,0,0,0-1.055-.142,124.429,124.429,0,0,0-3.854,23.094H295.9a75.829,75.829,0,0,0-3.371-14.41.545.545,0,0,0-.983-.129,54.958,54.958,0,0,0-2.8,5.109l.465-.267a12.9,12.9,0,0,1-3.741-.039c-.676-.108-.967.927-.285,1.037Z" transform="translate(-284.797 -287.063)" fill="#fff"/>
                </g>
              </g>
              <g id="Group_292757" data-name="Group 292757" transform="translate(38.573 0.159)">
                <circle id="Ellipse_10447" data-name="Ellipse 10447" cx="16.66" cy="16.66" r="16.66" transform="translate(0 23.56) rotate(-45)" fill="#7cd9a6"/>
                <path id="Path_99106" data-name="Path 99106" d="M341.348,286.939l-3.676,6.5-.209-.118L335.469,296l.181.1-.187.332-.879-.5a.382.382,0,0,0-.292-.035.377.377,0,0,0-.232.181l-4.863,8.594-1.012-.422-.184.328.948.537.809.456-1.871,3.307-.944-.218-.3.526,1.787,1.009,1.783,1.011.3-.528-.672-.7,1.871-3.307.808.457.949.537.184-.328-.884-.65,4.862-8.6a.384.384,0,0,0-.145-.523l-.879-.5.188-.331.181.1,1.268-3.088-.209-.118,3-5.3ZM337.1,297.946l-4.76,8.416-.341-.194-1.952-1.1-.342-.194,1.189-2.1.341.193,1.479.836.2-.356-1.478-.836-.341-.193.473-.836.341.194,1.478.835.2-.355-1.479-.836-.341-.194.473-.836,1.82,1.03.2-.357-1.82-1.029.474-.835,1.819,1.029.2-.357-1.819-1.028.473-.837,1.82,1.029.2-.356-1.819-1.029.672-1.189.746.423,1.144.647Z" transform="translate(-311.955 -275.513)" fill="#fff"/>
              </g>
            </g>
            <g id="Group_292759" data-name="Group 292759" transform="translate(194.051 56.48)">
              <rect id="Rectangle_151662" data-name="Rectangle 151662" width="100.426" height="109.077" fill="#e1ecf2"/>
              <path id="Path_99107" data-name="Path 99107" d="M378.536,173.872H293.887a1.325,1.325,0,0,1-1.325-1.325h0a1.326,1.326,0,0,1,1.325-1.326h84.649a1.326,1.326,0,0,1,1.325,1.326h0A1.325,1.325,0,0,1,378.536,173.872Z" transform="translate(-286.028 -152.513)" fill="#98c4df"/>
              <path id="Path_99108" data-name="Path 99108" d="M378.536,183.476H293.887a1.325,1.325,0,0,1-1.325-1.326h0a1.325,1.325,0,0,1,1.325-1.325h84.649a1.326,1.326,0,0,1,1.325,1.325h0A1.325,1.325,0,0,1,378.536,183.476Z" transform="translate(-286.028 -152.001)" fill="#98c4df"/>
              <path id="Path_99109" data-name="Path 99109" d="M344.733,193.079H293.887a1.325,1.325,0,0,1-1.325-1.325h0a1.325,1.325,0,0,1,1.325-1.325h50.846a1.325,1.325,0,0,1,1.325,1.325h0A1.325,1.325,0,0,1,344.733,193.079Z" transform="translate(-286.028 -151.488)" fill="#98c4df"/>
              <path id="Path_99110" data-name="Path 99110" d="M344.733,202.683H293.887a1.325,1.325,0,0,1-1.325-1.325h0a1.326,1.326,0,0,1,1.325-1.326h50.846a1.326,1.326,0,0,1,1.325,1.326h0A1.325,1.325,0,0,1,344.733,202.683Z" transform="translate(-286.028 -150.976)" fill="#98c4df"/>
              <path id="Path_99111" data-name="Path 99111" d="M344.733,212.287H293.887a1.326,1.326,0,0,1-1.325-1.326h0a1.325,1.325,0,0,1,1.325-1.325h50.846a1.325,1.325,0,0,1,1.325,1.325h0A1.326,1.326,0,0,1,344.733,212.287Z" transform="translate(-286.028 -150.463)" fill="#98c4df"/>
              <path id="Path_99112" data-name="Path 99112" d="M368.285,221.89h-74.4a1.325,1.325,0,0,1-1.325-1.325h0a1.326,1.326,0,0,1,1.325-1.326h74.4a1.326,1.326,0,0,1,1.325,1.326h0A1.325,1.325,0,0,1,368.285,221.89Z" transform="translate(-286.028 -149.95)" fill="#98c4df"/>
              <path id="Path_99113" data-name="Path 99113" d="M368.285,231.494h-74.4a1.326,1.326,0,0,1-1.325-1.326h0a1.325,1.325,0,0,1,1.325-1.325h74.4a1.325,1.325,0,0,1,1.325,1.325h0A1.326,1.326,0,0,1,368.285,231.494Z" transform="translate(-286.028 -149.438)" fill="#98c4df"/>
            </g>
            <g id="Group_292786" data-name="Group 292786">
              <rect id="Rectangle_151663" data-name="Rectangle 151663" width="166.167" height="169.727" transform="translate(0 56.48)" fill="#e1ecf2"/>
              <g id="Group_292779" data-name="Group 292779" transform="translate(12.444)">
                <path id="Path_99114" data-name="Path 99114" d="M303.119,224.695c-2.761.117-5.249-.38-8.1.229.559-5,6.254-6.253,6.477-11.27.026-.591-.255-1.717-.885-1.819a34.05,34.05,0,0,1-7.2,5.916c-2.349,1.583-4.892,3.012-6.7,5.114a28.821,28.821,0,0,0-3.608,6.319l-.628-1.427a2.111,2.111,0,0,0-.591-.886,2.311,2.311,0,0,0-1.222-.344c-6.5-.519-12.854,1.734-19.341,2.379a78.891,78.891,0,0,1-13.186-.167,4.287,4.287,0,0,1-1.945-.447,3.722,3.722,0,0,1-1.148-1.328c-7.737-12.664-12.182-25.507-21.658-37.117a6.851,6.851,0,0,0-2.445-2.289,57.183,57.183,0,0,0-19.9-7.935l0-.007-.116-.016c-.2-.038-.4-.078-.6-.114a15.859,15.859,0,0,0-5.5-2.952.418.418,0,0,0-.54.261,39.165,39.165,0,0,1-1.4-9.989c4.632-.211,6.764-3.12,9.191-6.8,2.44-3.7,3.342-8.1,3.678-12.43a54.171,54.171,0,0,0-.486-12.5.471.471,0,0,0-.008-.052c-.155-.993-.329-1.985-.539-2.969a38.284,38.284,0,0,0-1.221-4.438c.138-.1.282-.193.415-.293l.017-.016c3.821-1.453,6.843-3.948,7.974-8.111,3.9-14.328-20.255-19.041-28.557-13.045,0,0-11.994-6.224-17.213,5.411,0,0-20.572,10.354-2.8,30.823a3.637,3.637,0,0,0-1.375.5,2.422,2.422,0,0,0-1.035,2.606,6.979,6.979,0,0,0,1.448,2.543l1.695,2.2a11.616,11.616,0,0,0,2.695,2.778,6.007,6.007,0,0,0,4.227.986,1.779,1.779,0,0,0,1.217-.614c.22.333.442.666.669.994a42.663,42.663,0,0,1,.99,21.73.521.521,0,0,0-.575-.114,17.957,17.957,0,0,0-4.067,2.5c-.351.269-.678.557-1.018.836-.279.045-.557.094-.837.144l-.688.087-.019.045a58.123,58.123,0,0,0-20.1,7.94,8.825,8.825,0,0,0-1.939,1.571v0l-.008.012c-.024.028-.042.06-.065.089-.979,1.333-12.581,17.59-20.943,50.492a211.494,211.494,0,0,0-5.6,65.545h19.779l.036-.269a9.3,9.3,0,0,0,1.108.248,217.2,217.2,0,0,0,26.421,2.824c1.457.066,3.172-.011,4.006-1.28a4.911,4.911,0,0,0,.594-1.927c.024-.153.05-.307.074-.459l27.538.428.005.032a4.877,4.877,0,0,0,.594,1.927c.834,1.269,2.548,1.346,4.006,1.28a217.217,217.217,0,0,0,26.421-2.824,3.675,3.675,0,0,0,2.794-1.43,4.193,4.193,0,0,0,.316-2.246q-.774-17.542-1.549-35.082-.335-7.6-.7-15.214.581.882,1.2,1.752a5.638,5.638,0,0,0,2.25,2.12,6.408,6.408,0,0,0,2.636.309q7.55-.182,15.082-.748a108.122,108.122,0,0,0,11.085-1.29c9.157-1.655,17.762-5.214,26.275-8.746.535-.221,1.134-.515,1.257-1.045a1.638,1.638,0,0,0-.205-1l-1.87-4.246A47.406,47.406,0,0,1,303,233.694a35.013,35.013,0,0,0,6.719-1.039,24.3,24.3,0,0,0,6.547-3.692c1.861-1.323,6.162-4.059,7.069-6.062C321.906,219.725,311.879,224.324,303.119,224.695ZM194.562,177.367a15.075,15.075,0,0,1,3.909,1.818q-1.765-.251-3.507-.377l-.012.216c-.195-.577-.38-1.156-.549-1.739A.487.487,0,0,0,194.562,177.367Zm-20.877-.629q-.343,1.346-.8,2.645l-.029-.6c-.988.07-1.991.177-3,.31A16.852,16.852,0,0,1,173.685,176.738Z" transform="translate(-113.766 -99.641)" fill="#1e85a5" opacity="0.22"/>
                <g id="Group_292778" data-name="Group 292778">
                  <path id="Path_99115" data-name="Path 99115" d="M268.673,234.2c2.814-3.3,3.584-7.943,6.283-11.335,1.81-2.274,4.351-3.818,6.7-5.53a34.828,34.828,0,0,0,7.2-6.4c.631.111.912,1.327.886,1.968-.224,5.425-5.919,6.785-6.478,12.185,2.853-.657,5.341-.12,8.1-.246,8.759-.4,18.786-5.373,20.214-1.939-.907,2.165-5.208,5.124-7.069,6.555a23.879,23.879,0,0,1-6.547,3.991,32.528,32.528,0,0,1-6.719,1.123,44.772,44.772,0,0,0-18.354,6.515" transform="translate(-105.695 -93.914)" fill="#f1a088"/>
                  <g id="Group_292760" data-name="Group 292760" transform="translate(51.214 46.801)">
                    <path id="Path_99116" data-name="Path 99116" d="M186.9,162.023a45.452,45.452,0,0,0,4.669,23.7,1.863,1.863,0,0,1,.289,1.423c-.2.537-.828.752-1.383.893A66.028,66.028,0,0,1,169.66,189.9a16.233,16.233,0,0,1-7.088-1.74c8.07-11.673,7.926-29.058,1.311-43.89" transform="translate(-162.572 -144.272)" fill="#f1a088"/>
                    <path id="Path_99117" data-name="Path 99117" d="M166.387,151.306a49.652,49.652,0,0,1,2.152,14.839s9.1,4.481,18.065.648l-.4-5.372" transform="translate(-162.368 -143.897)" fill="#dd8572"/>
                  </g>
                  <path id="Path_99118" data-name="Path 99118" d="M144.1,255.068q-6.194,23.813-12.39,47.626c-.423,1.624-.71,3.586.9,4.68a7.647,7.647,0,0,0,4.067.816l84.4,1.415c1.238.02,2.8-.127,3.177-1.039a1.755,1.755,0,0,0-.05-1.133q-5.679-21.176-11.36-42.352c-.92-3.427-2.512-7.449-6.854-8.441a17.017,17.017,0,0,0-5.96.116,193.147,193.147,0,0,1-44.206.757" transform="translate(-113.022 -91.558)" fill="#2e6c9d"/>
                  <path id="Path_99119" data-name="Path 99119" d="M163.968,177.663c7.586,4.139,18.94,5.38,25.933.3,6.961,8.723,8.3,18.228,9.188,29.353s.1,22.33.933,33.459c.63,8.42,2.183,16.826,1.578,25.246a3.128,3.128,0,0,1-1.014,2.507,3.18,3.18,0,0,1-1.484.388c-13.158,1.222-26.377,2.445-39.568,1.658a4.873,4.873,0,0,1-2.617-.674,4.364,4.364,0,0,1-1.3-1.873,33.342,33.342,0,0,1-2.17-10.691c-1.612-20.159.4-40.479,4.224-60.338,1.271-6.608,2.77-13.251,5.758-19.281" transform="translate(-111.875 -95.689)" fill="#fff"/>
                  <g id="Group_292763" data-name="Group 292763" transform="translate(38.639)">
                    <path id="Path_99120" data-name="Path 99120" d="M177.048,108.867c5.8,1.205,11.71,3.262,15.715,7.621,3.407,3.707,5.066,8.691,6.041,13.631a63.4,63.4,0,0,1,1.033,16.778c-.336,4.677-1.239,9.435-3.679,13.44s-4.58,7.166-9.265,7.363c-3.344.139-8.844-2.1-11.51-4.125a27.925,27.925,0,0,1-6.559-6.537c-5.048-7.179-9.036-15.386-9.68-24.137s2.5-18.094,9.494-23.4" transform="translate(-150.184 -99.361)" fill="#f1a088"/>
                    <g id="Group_292761" data-name="Group 292761" transform="translate(17.91 30.99)">
                      <path id="Path_99121" data-name="Path 99121" d="M186.812,133.181a40.215,40.215,0,0,0,1.646,5.967,13.481,13.481,0,0,0,3.349,5.148,8.586,8.586,0,0,1-4.41,2.2" transform="translate(-166.613 -129.053)" fill="#dd8572"/>
                      <path id="Path_99122" data-name="Path 99122" d="M167.886,135.232a24.35,24.35,0,0,1,12.174-1.644,1.48,1.48,0,0,0,1.58-1.918,1.7,1.7,0,0,0-1.517-.97c-2.623-.389-9.417,0-12.454,4.265A.18.18,0,0,0,167.886,135.232Z" transform="translate(-167.636 -129.192)"/>
                      <path id="Path_99123" data-name="Path 99123" d="M197.654,132.455a9.36,9.36,0,0,0-7.359-.061c-.588.241-1.306-.651-1.268-1.65.018-.457.947-1.03,1.487-1.148,3.1-.683,6.264-.54,7.216,2.574C197.775,132.32,197.761,132.5,197.654,132.455Z" transform="translate(-166.495 -129.262)"/>
                      <path id="Path_99124" data-name="Path 99124" d="M181.336,150.031l12.224-.988S190.844,159.075,181.336,150.031Z" transform="translate(-166.905 -128.207)" fill="#fff"/>
                      <path id="Path_99125" data-name="Path 99125" d="M177.769,138.055a1.264,1.264,0,1,1-1.216-1.609A1.455,1.455,0,0,1,177.769,138.055Z" transform="translate(-167.225 -128.879)"/>
                      <path id="Path_99126" data-name="Path 99126" d="M194.446,136.619a1.264,1.264,0,1,1-1.216-1.608A1.455,1.455,0,0,1,194.446,136.619Z" transform="translate(-166.335 -128.955)"/>
                    </g>
                    <path id="Path_99127" data-name="Path 99127" d="M163.588,136.587s1.755-9.417,11.836-7.741,17.843-.5,22.341-4.179S160.569,99.579,163.588,136.587Z" transform="translate(-149.951 -99.024)" fill="#dd8572"/>
                    <path id="Path_99128" data-name="Path 99128" d="M163.416,147.795s.631-6.6.962-12.033c.384-6.31,2.829-9.669,7.389-9.5s30.776,5.934,34.673-9.559-20.256-20.589-28.557-14.107c0,0-11.995-6.73-17.214,5.851C160.668,108.443,136.358,121.67,163.416,147.795Z" transform="translate(-150.634 -99.843)"/>
                    <g id="Group_292762" data-name="Group 292762" transform="translate(4.764 41.838)">
                      <path id="Path_99129" data-name="Path 99129" d="M164.205,143.253a5.753,5.753,0,0,0-4.855-3.642,4.49,4.49,0,0,0-3.094.581,2.722,2.722,0,0,0-1.037,2.819,7.737,7.737,0,0,0,1.448,2.749l1.7,2.384a12.2,12.2,0,0,0,2.693,3,5.658,5.658,0,0,0,4.227,1.065c1.518-.281,2.807-1.213-1.08-8.961" transform="translate(-155.156 -139.561)" fill="#f1a088"/>
                      <path id="Path_99130" data-name="Path 99130" d="M164.649,144.6a2.806,2.806,0,0,0-2.369-1.777,2.2,2.2,0,0,0-1.511.283,1.331,1.331,0,0,0-.506,1.376,3.778,3.778,0,0,0,.708,1.342l.827,1.163a5.954,5.954,0,0,0,1.315,1.466,2.761,2.761,0,0,0,2.063.52c.742-.138,1.37-.592-.527-4.374" transform="translate(-154.885 -139.389)" fill="#dd8572"/>
                    </g>
                  </g>
                  <g id="Group_292764" data-name="Group 292764" transform="translate(74.635 81.311)">
                    <path id="Path_99131" data-name="Path 99131" d="M187.689,177.034a53.922,53.922,0,0,1,25.972,9.459,7.1,7.1,0,0,1,2.444,2.475,8.953,8.953,0,0,1,.714,2.771c3.845,26.451,4.946,53.312,6.039,80.1q.776,18.969,1.55,37.935a4.858,4.858,0,0,1-.316,2.429,3.6,3.6,0,0,1-2.794,1.546,201.354,201.354,0,0,1-26.421,3.054c-1.458.072-3.172-.011-4.006-1.383a5.632,5.632,0,0,1-.594-2.084c-1.976-13.18-3.954-26.382-4.847-39.715-1.151-17.215-.483-34.515.184-51.763.579-14.952,1.495-29.874,2.074-44.824" transform="translate(-184.806 -177.034)" fill="#c8deeb"/>
                    <path id="Path_99132" data-name="Path 99132" d="M214.7,188.364c9.476,12.553,13.921,26.442,21.658,40.134a3.954,3.954,0,0,0,1.149,1.436,4,4,0,0,0,1.945.482,72.965,72.965,0,0,0,13.186.182c6.486-.7,12.841-3.134,19.34-2.572a2.183,2.183,0,0,1,1.222.372,2.3,2.3,0,0,1,.591.959l6.546,16.077a1.886,1.886,0,0,1,.205,1.079c-.121.574-.722.891-1.257,1.131-8.512,3.818-17.118,7.667-26.275,9.456a100.121,100.121,0,0,1-11.085,1.4q-7.527.611-15.082.809a5.96,5.96,0,0,1-2.636-.334,5.854,5.854,0,0,1-2.25-2.293c-13.363-20.248-12.61-44.65-7.258-68.313" transform="translate(-183.403 -176.429)" fill="#c8deeb"/>
                    <path id="Path_99133" data-name="Path 99133" d="M184.9,243.845c5.564-10.857,11.569-21.336,19.16-30.886.27-.339.55-.811.307-1.169a1.033,1.033,0,0,0-.517-.329l-11.764-4.48a103.05,103.05,0,0,1,10.692-9.024,1.5,1.5,0,0,0,.343-2.077,77.128,77.128,0,0,1-9.367-17.975l-6.067-.871s-2.516,50.008-2.6,59.518Z" transform="translate(-184.801 -177.034)" fill="#2e6c9d" opacity="0.17"/>
                    <rect id="Rectangle_151664" data-name="Rectangle 151664" width="25.383" height="8.241" rx="0.607" transform="translate(7.169 82.069) rotate(-2.455)" fill="#2e6c9d" opacity="0.17"/>
                    <path id="Path_99134" data-name="Path 99134" d="M219.4,247.864s-3.627-34.92-6.429-34.591S210.253,232.925,219.4,247.864Z" transform="translate(-183.389 -175.1)" fill="#2e6c9d" opacity="0.17"/>
                  </g>
                  <g id="Group_292765" data-name="Group 292765" transform="translate(0 81.286)">
                    <path id="Path_99135" data-name="Path 99135" d="M168.437,177.01a55.162,55.162,0,0,0-26.308,9.488,7.1,7.1,0,0,0-2.445,2.475,8.981,8.981,0,0,0-.713,2.771c-3.846,26.45-4.947,53.311-6.04,80.1q-.774,18.967-1.55,37.934a4.858,4.858,0,0,0,.316,2.429,3.6,3.6,0,0,0,2.794,1.546,201.375,201.375,0,0,0,26.421,3.054c1.458.072,3.172-.011,4.006-1.383a5.592,5.592,0,0,0,.594-2.084c1.976-13.179,3.954-26.381,4.847-39.714,1.151-17.214.485-34.514-.184-51.762q-.869-22.426-1.737-44.851" transform="translate(-113.023 -177.01)" fill="#c8deeb"/>
                    <path id="Path_99136" data-name="Path 99136" d="M169.968,244.118c-5.564-10.857-11.568-21.337-19.16-30.887-.27-.338-.55-.81-.305-1.168a1.026,1.026,0,0,1,.516-.329l11.764-4.48a103.011,103.011,0,0,0-10.855-9.144,1.29,1.29,0,0,1-.3-1.791,79.7,79.7,0,0,0,9.6-18.456l6.191-.853s2.277,50.3,2.357,59.815Z" transform="translate(-112.007 -177.01)" fill="#2e6c9d" opacity="0.17"/>
                    <path id="Path_99137" data-name="Path 99137" d="M141.118,187.626s-12.28,17.538-21.016,54.706a246.832,246.832,0,0,0-5.6,70.874h19.778s8.406-66.744,9.231-85.95S141.118,187.626,141.118,187.626Z" transform="translate(-113.953 -176.443)" fill="#c8deeb"/>
                    <path id="Path_99138" data-name="Path 99138" d="M137.894,275.127s10.621-35.739,7.71-53.527S138.153,255.267,137.894,275.127Z" transform="translate(-112.675 -174.827)" fill="#2e6c9d" opacity="0.17"/>
                  </g>
                  <g id="Group_292774" data-name="Group 292774" transform="translate(28.001 78.231)">
                    <g id="Group_292766" data-name="Group 292766" transform="translate(7.413)">
                      <path id="Path_99139" data-name="Path 99139" d="M167.991,174.156a17.757,17.757,0,0,0-4.067,2.707,47.737,47.737,0,0,0-11.235,13.7,42.807,42.807,0,0,0-5.025,23.249,59.415,59.415,0,0,0,2.682,13.863c.169.544,1.072.312.9-.235-2.392-7.685-3.517-15.813-2.154-23.774A43.088,43.088,0,0,1,159.525,182.4a49.214,49.214,0,0,1,4.383-4.335,18.553,18.553,0,0,1,4.555-3.144c.546-.24.071-1-.472-.762Z" transform="translate(-147.572 -174.11)" fill="#2e6c9d"/>
                    </g>
                    <g id="Group_292773" data-name="Group 292773" transform="translate(0 53.079)">
                      <g id="Group_292769" data-name="Group 292769" transform="translate(0 0.079)">
                        <g id="Group_292767" data-name="Group 292767">
                          <path id="Path_99140" data-name="Path 99140" d="M150.5,224.6a11,11,0,0,0-1.864.7,14.759,14.759,0,0,0-3.822,2.532,12.919,12.919,0,0,0-3.406,5.085,16.679,16.679,0,0,0-.627,8.338,38.486,38.486,0,0,0,4.485,12.275q.5.934,1.041,1.856c.215.372,1.069.117.852-.258a43.137,43.137,0,0,1-5.239-12.662,17.734,17.734,0,0,1,.093-8.6,12.2,12.2,0,0,1,3.037-5.213,13.557,13.557,0,0,1,3.711-2.665q.378-.188.773-.355l.083-.036.166-.066c.1-.039.2-.077.3-.113.226-.082.473-.14.7-.225l.031-.008c.56-.14.249-.727-.311-.587Z" transform="translate(-140.535 -224.575)" fill="#2e6c9d"/>
                        </g>
                        <g id="Group_292768" data-name="Group 292768" transform="translate(1.735 22.686)">
                          <path id="Path_99141" data-name="Path 99141" d="M142.225,247.01A62.9,62.9,0,0,0,146,254.477c.442.738,2.151.229,1.7-.515a62.909,62.909,0,0,1-3.773-7.468c-.334-.773-2.038-.257-1.705.516Z" transform="translate(-142.182 -246.111)" fill="#2e6c9d"/>
                        </g>
                        <path id="Path_99142" data-name="Path 99142" d="M148.267,256.315h0a1.822,1.822,0,0,1-2.066-.447l-1.049-1.566c-.359-.536-.016-1.2.767-1.493h0a1.824,1.824,0,0,1,2.066.448l1.049,1.566C149.393,255.359,149.05,256.027,148.267,256.315Z" transform="translate(-140.297 -223.075)" fill="#2e6c9d"/>
                      </g>
                      <g id="Group_292772" data-name="Group 292772" transform="translate(10.832)">
                        <g id="Group_292770" data-name="Group 292770">
                          <path id="Path_99143" data-name="Path 99143" d="M162.456,253.719a42.759,42.759,0,0,0,2.245-13.6,18.264,18.264,0,0,0-2.116-8.573,13.387,13.387,0,0,0-4.361-4.677,15,15,0,0,0-4.452-1.955,10.052,10.052,0,0,0-2.39-.414l-.035,0c-.577-.024-.75.613-.17.636.169.007.337.026.5.046q.292.035.579.084l.164.028c.082.015-.043-.009.1.02s.273.056.408.086a14.13,14.13,0,0,1,4.093,1.606,12.654,12.654,0,0,1,4.276,4.085,16.592,16.592,0,0,1,2.429,7.846,37.473,37.473,0,0,1-1.595,12.749q-.27.978-.573,1.953c-.126.409.765.487.891.079Z" transform="translate(-150.818 -224.499)" fill="#2e6c9d"/>
                        </g>
                        <g id="Group_292771" data-name="Group 292771" transform="translate(10.102 20.653)">
                          <path id="Path_99144" data-name="Path 99144" d="M162.42,244.65a61.374,61.374,0,0,1-1.985,8.058c-.265.815,1.518.97,1.782.158a61.15,61.15,0,0,0,1.985-8.057c.15-.822-1.633-.983-1.782-.159Z" transform="translate(-160.409 -244.106)" fill="#2e6c9d"/>
                        </g>
                        <path id="Path_99145" data-name="Path 99145" d="M160.415,255.115h0a1.784,1.784,0,0,0,1.916-.854l.668-1.742c.229-.6-.259-1.179-1.089-1.3h0a1.785,1.785,0,0,0-1.916.855l-.668,1.742C159.1,254.409,159.585,254.991,160.415,255.115Z" transform="translate(-150.367 -223.075)" fill="#2e6c9d"/>
                      </g>
                    </g>
                  </g>
                  <g id="Group_292777" data-name="Group 292777" transform="translate(76.791 78.825)">
                    <g id="Group_292775" data-name="Group 292775">
                      <path id="Path_99146" data-name="Path 99146" d="M187.177,175.6c9.935,3.218,12.324,14.974,12.917,24.063.713,10.923-.975,21.832-3.452,32.444-1.4,6.02-3.066,11.976-4.739,17.925a.468.468,0,0,0,.9.249c3.075-10.937,6.13-21.936,7.571-33.232a91.444,91.444,0,0,0,.691-16.785c-.3-5.224-.984-10.607-3.135-15.426-2.04-4.572-5.652-8.568-10.506-10.141-.574-.185-.821.717-.249.9Z" transform="translate(-186.853 -174.674)" fill="#2e6c9d"/>
                    </g>
                    <g id="Group_292776" data-name="Group 292776" transform="translate(0.468 67.418)">
                      <circle id="Ellipse_10448" data-name="Ellipse 10448" cx="6.263" cy="6.263" r="6.263" fill="#125377"/>
                      <path id="Path_99147" data-name="Path 99147" d="M196.837,244.8a3.42,3.42,0,1,1-3.42-3.421A3.421,3.421,0,0,1,196.837,244.8Z" transform="translate(-187.153 -238.533)" fill="#c7ddeb"/>
                    </g>
                  </g>
                </g>
              </g>
              <rect id="Rectangle_151665" data-name="Rectangle 151665" width="164.006" height="17.112" transform="translate(1.333 203.986)" fill="#e1ecf2"/>
              <g id="Group_292785" data-name="Group 292785" transform="translate(20.928 207.586)">
                <g id="Group_292781" data-name="Group 292781" transform="translate(110.463)">
                  <path id="Path_99148" data-name="Path 99148" d="M241,303.974a7.062,7.062,0,1,1-7.062-7.063A7.062,7.062,0,0,1,241,303.974Z" transform="translate(-226.873 -296.911)" fill="#1e85a5"/>
                  <g id="Group_292780" data-name="Group 292780" transform="translate(3.377 1.045)">
                    <rect id="Rectangle_151666" data-name="Rectangle 151666" width="4.664" height="7.197" rx="1.969" transform="translate(1.683)" fill="#fac620"/>
                    <path id="Path_99149" data-name="Path 99149" d="M237.2,302.726c0,.124-.018.249-.034.371,0,.032-.016.107-.018.123-.012.071-.024.14-.038.21-.035.178-.077.353-.126.527a3.514,3.514,0,0,1-1.3,2.011,3,3,0,0,1-2.977.117,3.277,3.277,0,0,1-1.45-1.986,4.9,4.9,0,0,1-.26-1.554.456.456,0,0,0-.912,0,5.13,5.13,0,0,0,1.931,4.185,3.578,3.578,0,0,0,1.6.569q0,1.076-.011,2.153c0,.123,0,.248,0,.372a.456.456,0,0,0,.912,0q.006-1.261.013-2.522a3.821,3.821,0,0,0,1.131-.289,4,4,0,0,0,2.047-2.342,6.121,6.121,0,0,0,.406-1.946C238.129,302.138,237.216,302.139,237.2,302.726Z" transform="translate(-230.079 -297.679)" fill="#fac620"/>
                  </g>
                </g>
                <g id="Group_292782" data-name="Group 292782" transform="translate(55.231)">
                  <path id="Path_99150" data-name="Path 99150" d="M188.565,303.974a7.062,7.062,0,1,1-7.063-7.063A7.063,7.063,0,0,1,188.565,303.974Z" transform="translate(-174.44 -296.911)" fill="#1e85a5"/>
                  <path id="Path_99151" data-name="Path 99151" d="M178.521,300.106a.7.7,0,0,0-.836.131,2.826,2.826,0,0,0-.5,3.459c1.222,2.323,4.838,4.265,4.838,4.265a2.687,2.687,0,0,0,3.54-1.592.69.69,0,0,0-.2-.832l-.848-.694a.7.7,0,0,0-1.083.242c-.336.742-.916,1.484-1.738,1.026a10.985,10.985,0,0,1-2.61-2.271.68.68,0,0,1-.13-.632,4.23,4.23,0,0,1,.682-1.374.714.714,0,0,0-.064-1A6.109,6.109,0,0,0,178.521,300.106Z" transform="translate(-174.314 -296.745)" fill="#fac620"/>
                </g>
                <g id="Group_292784" data-name="Group 292784">
                  <path id="Path_99152" data-name="Path 99152" d="M136.132,303.974a7.062,7.062,0,1,1-7.063-7.063A7.063,7.063,0,0,1,136.132,303.974Z" transform="translate(-122.007 -296.911)" fill="#1e85a5"/>
                  <g id="Group_292783" data-name="Group 292783" transform="translate(3.017 5.988)">
                    <path id="Path_99153" data-name="Path 99153" d="M127.019,303.67a1.074,1.074,0,1,1-1.073-1.074A1.073,1.073,0,0,1,127.019,303.67Z" transform="translate(-124.871 -302.596)" fill="#fac620"/>
                    <path id="Path_99154" data-name="Path 99154" d="M129.84,303.67a1.074,1.074,0,1,1-1.074-1.074A1.074,1.074,0,0,1,129.84,303.67Z" transform="translate(-124.72 -302.596)" fill="#fac620"/>
                    <path id="Path_99155" data-name="Path 99155" d="M132.66,303.67a1.074,1.074,0,1,1-1.073-1.074A1.073,1.073,0,0,1,132.66,303.67Z" transform="translate(-124.57 -302.596)" fill="#fac620"/>
                  </g>
                </g>
              </g>
            </g>
          </g>
        </g>
      </g>
    </g>
    <rect id="Rectangle_151306" data-name="Rectangle 151306" width="570" height="1.568" rx="0.784" transform="translate(214 1468)" fill="#2e3552"/>
  </g>
</svg>
